<?xml version="1.0" encoding="utf-8"?>
<!-- Generator: Adobe Illustrator 24.0.3, SVG Export Plug-In . SVG Version: 6.00 Build 0)  -->
<svg version="1.1" id="Слой_1" xmlns="http://www.w3.org/2000/svg" xmlns:xlink="http://www.w3.org/1999/xlink" x="0px" y="0px"
	 viewBox="0 0 1994.5 393.8" style="enable-background:new 0 0 1994.5 393.8;" xml:space="preserve">
<style type="text/css">
	.st0{fill:#049983;}
	.st1{fill:#C8A06F;}
	.st2{fill:#EBC18A;}
	.st3{fill:#E9B97E;}
	.st4{display:none;fill:none;stroke:#000000;stroke-miterlimit:10;}
</style>
<g>
	<title>seaweed</title>
	<g>
		<g id="Водоролслди">
			<path class="st0" d="M1774,257.2c-26.3,16.9-29.1,18.8-3.8,44.1s13.2,34.7-6.6,61.9c-6.9,9.5-6,20.5-1.8,30.6h24.4
				c-6-4.8-11.4-10.2-15-15.6c-9.4-14.1,23.5-36.6,32.9-49.7s-22.6-34.7-33.8-43.1s10.3-24.4,25.4-33.8s-20.7-19.7-31-24.4
				s-0.9-13.1,17.9-22.5s2.8-17.8-7.5-23.4c6.6,5.6,14.1,15.9,1.9,22.5s-35.7,15.9-16.9,30.9S1800.3,240.3,1774,257.2z"/>
			<path class="st0" d="M529.4,254.7c-26.3,16.9-29.1,18.8-3.8,44.1s13.2,34.7-6.6,61.9c-7.5,10.3-5.8,22.2-0.8,33.1h26.5
				c-7.2-5.4-13.9-11.6-18.2-18.1c-9.4-14.1,23.5-36.6,32.9-49.7s-22.6-34.7-33.8-43.1s10.4-24.4,25.4-33.8s-20.7-19.7-31-24.4
				s-1-13.1,17.8-22.5s2.8-17.8-7.5-23.4c6.6,5.6,14.1,15.9,1.9,22.5s-35.7,15.9-16.9,30.9C534.1,247.2,555.7,237.8,529.4,254.7z"/>
			<path class="st0" d="M1969.7,391.6c0.2,0.7,0.5,1.4,0.8,2.2h8.8c-0.9-8.6,0.7-17.1,6.7-29.4c12.2-25.3,10.9-27.2-1.8-44.1
				s-2.3-7.5,6.8-22.5s-2.3-24.4-8.2-30.9s-2.3-16.9,0.9-22.5c-5,5.6-12.7,14.1-3.6,23.4s13.6,17.8,8.6,22.5s-22.2,15-15,24.4
				s17.7,25.3,12.2,33.8S1965.2,378.5,1969.7,391.6z"/>
			<path class="st0" d="M1684.5,393.8h14.9c-0.3-0.3-0.6-0.6-0.9-0.9c-2.7-2.2-6.3-2.5-9.5-3.5c-4.4-1.4,2.7-11,4-13
				c2.4-3.7,3.6-7.4,5.2-11.4c1.4-3.4,3.2-8.2,0.6-11.4c-1.4-1.6-3-3-4.7-4.2c-3.2-2.5-0.7-6,1.2-8.4c3.2-4,5.9-8.5,8-13.2
				c2-4.5,2.9-9.6-1.5-12.8c-5.8-4.2-10.2-8.7-8.3-16.7c2.2-9,6.8-15.1,0.5-23.7c-0.6-0.9,3.4,6.5-1.5,16.8c-1.5,3.1-3.3,6.4-3.5,10
				c-0.5,6.1,2.3,12.1,7.2,15.7c1.4,1,3.7,1.9,3.8,3.9c0.2,4.4-4.2,10.5-6.8,13.7c-5.1,6.5-10.5,13.2-2.6,19.9
				c1.7,1.5,3.3,2,2.9,4.6c-0.4,2.4-1.6,4.6-2.5,6.8c-1.9,4.3-4.1,8.4-6.6,12.3C1681.3,383.6,1679.9,390,1684.5,393.8z"/>
			<path class="st0" d="M1922.8,355.6c-8.6,14.3-35.9,10-25.9,35.8c0.3,0.8,0.7,1.6,1,2.3h28.4c-12-12.1,3.2-23,22.3-35.3
				c20.1-12.9,1.4-18.6-21.6-35.9s-18.7-20.1,1.4-31.5s10-14.3-5.8-31.5s14.4-30.1,30.2-34.4s18.7-15.8,14.4-25.8
				s-1.4-18.6,11.5-28.7s-33-25.8-43.1-33s20.1-24.4,31.6-38.7s-18.7-25.8-27.3-37.3s18.7-11.5,38.8-22.9s-5.8-38.7-23-38.7
				c12.9,2.9,38.8,28.7,8.6,35.8s-53.2,25.8-28.7,40.1s17.2,37.3-3,47.1s-28.6,18.8,0.1,28.9s35.9,15.8,23,25.8s8.6,14.3-7.2,31.5
				s-48.8,22.9-50.3,41.3s13,20.4,18.7,31.9s-37.4,5.7-21.6,25.8S1931.4,341.3,1922.8,355.6z"/>
			<path class="st0" d="M26.4,393.8h26c-4.8-7.3-16-12-18.9-21.8c-4.8-16,17.9-23.5,38.3-39s-22.8-20.7-14.4-30.4s23-8.1,26.1-26.2
				S56,244.5,45,223.9s10.9-19.4,0.9-32.3s-1.7-16.7,28.7-19.3S99,159,81.9,144.4S63.6,105.8,90.8,98s9.6-31.6-17.8-46
				S77,19,90.3,19.4c-16.7-4.3-48.5,15.7-31.9,31.8s43.1,22.9,31.8,31.9C79,92,46.9,95.6,54.4,112.4s32.5,40.9,21,45.4
				s-60,8.3-50,21.2s10.7,22,4,30.6s-6.8,20.5,7.5,28.6s40.2,28.1,20.6,40.8s-30.1,13-13.4,29.1s20.1,20-6.5,30.9
				s-46.2,11.8-29.9,29.3C16.5,377.7,24.1,386.4,26.4,393.8z"/>
			<path class="st0" d="M909.7,393.8h26.6c-3-3.7-8.2-8.1-14.2-14.6c-15.8-17.2,14.4-30.1,30.2-34.4s18.7-15.8,14.4-25.8
				s-1.4-18.6,11.5-28.7s-33.1-25.8-43.1-33s20.1-24.4,31.6-38.7s-18.7-25.8-27.3-37.3s18.7-11.5,38.8-22.9s-5.8-38.7-23-38.7
				c12.9,2.9,38.8,28.7,8.6,35.9s-53.2,25.8-28.7,40.1s17.2,37.3-3,47.1s-28.6,18.8,0.1,28.9s35.9,15.8,23,25.8s8.6,14.3-7.2,31.5
				s-48.9,22.9-50.4,41.3C896.7,383.2,903.6,388,909.7,393.8z"/>
			<path class="st0" d="M1008.4,330.7c4.3,10-14.5,11.2-17.9,24.9s26.3,20,26.2,28.4c0,2.3-3.8,6.3-8.9,9.7h11.9
				c18.8-27.4-7.5-21.8-16.4-29.4c-10.2-8.7,2.8-13.6,13.6-23.7c9.3-8.7-1.7-15-10.2-21.2s-17-18.7-5.9-26.2s11.9-12.5,2.5-21.2
				s-10.2-15,1.7-27.5c-27.1,25-3.4,27.5-2.5,34.9s-8.5,8.7-11.9,23.7S1004.2,320.8,1008.4,330.7z"/>
			<path class="st0" d="M473.8,393.8c-6.5-8.8-10.7-21.3-1.6-29.5c11-9.8,11.9-16.4,2.5-27.9s-10.2-19.7,1.7-36.1
				c-27.1,32.8-3.4,36.1-2.5,45.9s-8.5,11.5-11.9,31.2c-1.2,7.2,0.3,12.2,2.9,16.3H473.8z"/>
			<path class="st0" d="M116.1,393.8h22c-6.3-6.6-12.9-12.8-20-18.5c-19.1-15.6,33.4,7.8,24.6-23.4s-33.4-19.5-18.3-32.6
				s32.6,0,15.9-30s-24.7-30-11.1-41.7s27-20.8,3.2-44.3c3.2,5.2,11.1,14.3,8.8,23.4S118.9,245,116.5,258s18.3,32.6,18.3,40.5
				s-19.9,14.3-23.1,26c-3.2,11.7,14.3,18.2,18.3,27.3c4,9.1-21.5,1.3-29.4,13C94.8,373.4,106.7,385.4,116.1,393.8z"/>
			<path class="st0" d="M261.6,342.8c13.6,30.5,27.3,10.9,7.4,37.1c-3.2,4.1-5.4,8.8-6.5,13.9h17.3c-1-2.3-1.3-4.8-0.9-7.3
				c2.5-13.1,14.9-8.7,13.6-19.6s-24.8-24-23.6-39.2s26-28.4,26-39.2s-21-19.6-22.3-28.4s17.4-8.7,18.6-19.6s-36-28.3-21.1-65.4
				c-13.6,19.6-7.4,34.9,5,54.5s0,8.7-12.4,28.4s33.5,10.9,22.3,34.9S247.9,312.3,261.6,342.8z"/>
			<path class="st0" d="M291.8,389.7c-0.8,1.2-1.5,2.6-1.9,4h12.3c-0.3-0.6-0.5-1.2-0.5-1.8c-1.2-8.7,17.4-8.7,18.6-19.6
				s-36-28.3-21.1-65.4c-13.6,19.6-7.4,34.9,5,54.5S304.2,370.1,291.8,389.7z"/>
			<path class="st0" d="M405.6,393.1l0.8,0.6h24.1c-7.5-3.3-16-6.2-20.2-8.1c-10.3-4.7-0.9-13.1,17.9-22.5s2.8-17.8-7.5-23.4
				c6.6,5.6,14.1,15.9,1.9,22.5S386.8,378.1,405.6,393.1z"/>
			<path class="st0" d="M225.7,337.3c-11.2,9-43.3,12.6-35.8,29.3c3.8,8.3,11.8,18.5,17.5,27.1h5.1c-12.2-14.5-10.6-34.5,13.7-41.5
				c27.2-7.8,9.6-31.6-17.8-46s4.1-33,17.3-32.6c-16.7-4.3-48.6,15.7-31.9,31.8S236.9,328.3,225.7,337.3z"/>
			<path class="st0" d="M343.2,393.8h5.9c0.2-0.2,0.3-0.3,0.5-0.5c11-9.8,11.9-16.4,2.5-27.9s-10.2-19.7,1.7-36.1
				c-27.1,32.8-3.4,36.1-2.5,45.9C352,382.4,347.2,385.2,343.2,393.8z"/>
			<path class="st0" d="M172,387.2c2.7,6.1-8,4.6-17.6,6.5h31.4c0-2.2-0.4-4.4-1-6.5c-8.8-31.2-33.4-19.5-18.3-32.6s32.6,0,15.9-30
				s-24.6-30-11.1-41.7s27-20.8,3.2-44.3c3.2,5.2,11.1,14.3,8.8,23.4s-22.3,18.3-24.7,31.3s18.3,32.6,18.3,40.4s-19.9,14.3-23.1,26
				S168,378.1,172,387.2z"/>
			<path class="st0" d="M571.2,362.1c12.5,28.1,25.1,13.7,11.6,31.6H599c2.2-1.5,3.7-3.5,3.3-7.7c-1.2-10.9-24.8-24-23.6-39.2
				s26-28.4,26-39.2s-21.1-19.6-22.3-28.4s17.4-8.7,18.6-19.6s-36-28.3-21.1-65.4c-13.6,19.6-7.4,34.9,5,54.5s0,8.7-12.4,28.4
				S606,288,594.8,312C583.7,336,557.6,331.6,571.2,362.1z"/>
			<path class="st0" d="M371.2,375c5.5,12.3,11,16.5,14.3,18.8h14.7c-5.9-9.8-22.6-21.1-21.5-34c1.2-15.3,26-28.3,26-39.3
				s-21.1-19.6-22.3-28.3s17.4-8.8,18.6-19.7s-36-28.4-21.1-65.4c-13.6,19.6-7.4,34.9,5,54.5s0,8.7-12.4,28.3s33.5,10.9,22.3,34.9
				C383.7,348.8,357.6,344.5,371.2,375z"/>
			<path class="st0" d="M1552,354.5c-24.5,15.7-28.6,18.5-8.5,39.3h19.5c-5.7-4.6-11.2-8.5-14.8-11.1c-11.3-8.4,10.3-24.4,25.4-33.8
				s-20.7-19.7-31-24.4s-0.9-13.1,17.8-22.5s2.8-17.8-7.5-23.4c6.6,5.6,14.1,15.9,1.9,22.5s-35.7,15.9-16.9,31
				S1578.3,337.6,1552,354.5z"/>
			<path class="st0" d="M1087.4,309.3c-6.7,8.6-6.8,20.5,7.5,28.6s40.2,28.1,20.6,40.8c-11.3,7.3-19.5,10.5-21.3,15h33.9
				c6-3.3,11.6-7.2,13.4-17.6c3.1-18.1-27.4-31.9-38.5-52.5s10.9-19.4,0.9-32.3s-1.6-16.7,28.7-19.3s24.4-13.4,7.3-27.9
				s-18.3-38.6,8.9-46.4s9.6-31.6-17.8-46s4.1-33,17.3-32.6c-16.7-4.3-48.6,15.7-31.9,31.8s43.1,22.9,31.8,31.9
				s-43.3,12.6-35.8,29.3s32.5,40.9,21,45.4s-60,8.3-50,21.2S1094.1,300.7,1087.4,309.3z"/>
			<path class="st0" d="M860.6,393.8c-0.7-1.4-1.5-3-2.5-4.7c-16.7-30-24.7-30-11.1-41.7s27-20.8,3.2-44.3
				c3.2,5.2,11.1,14.3,8.8,23.4c-2.4,9.1-22.3,18.2-24.7,31.3c-2,11,12.4,26.6,16.9,35.9H860.6z"/>
			<path class="st0" d="M1285.4,357.5c-12.4,19.6,33.5,10.9,22.3,34.9c-0.2,0.5-0.4,0.9-0.7,1.3h8.7c1.1-1.7,1.8-3.7,1.9-5.7
				c0-10.9-21.1-19.6-22.3-28.3s17.4-8.7,18.6-19.6s-36-28.4-21.1-65.4c-13.6,19.6-7.4,34.9,5,54.5S1297.8,337.9,1285.4,357.5z"/>
			<path class="st0" d="M1595.1,376.9c-6.9,10.9,4.2,13,13.5,16.9h9.7c-5.9-5.2-12.5-9.9-13.2-14.7c-1.2-8.7,17.4-8.7,18.6-19.6
				s-36-28.3-21.1-65.4c-13.6,19.6-7.4,34.9,5,54.5S1607.5,357.2,1595.1,376.9z"/>
			<path class="st0" d="M1395.1,389.7c-0.8,1.2-1.4,2.6-1.9,4h12.3c-0.3-0.6-0.5-1.2-0.6-1.8c-1.2-8.7,17.4-8.7,18.6-19.6
				s-36-28.3-21.1-65.4c-13.6,19.6-7.4,34.9,5,54.5S1407.5,370.1,1395.1,389.7z"/>
			<path class="st0" d="M1188.6,364.9c1.7,8.1-3,13.3-7.4,28.9h8.8c3.1-13,5.4-28.6,3.4-35.6c-2.7-9.6-15.1-18.9-9.6-41.6
				c-9.2,16.4-4,29.1,2.4,41.8C1187.2,360.4,1188,362.6,1188.6,364.9z"/>
		</g>
	</g>
</g>
<g>
	<path class="st1" d="M0,316.5c0,0,99.5,24.4,283.7,12.7s342.2,8,410.3,32.2c68.1,24.2,218.6-0.4,247.5-32.2
		c28.9-31.9,331-21.2,366.1,19.2c35.1,40.4,413.6-6.9,453.2-8.8c23.7-12.8,224.1-2.6,233.6-23.1c0,22.2,0,77.2,0,77.2H0L0,316.5z"/>
	<path class="st2" d="M20.9,369.3c5.7,0.3,12.1-0.6,17.7-1.8c7.9-1.6,15.9-3,23.7-4.8c5-1.2,11.8-4.8,16.9-4.2
		c-0.3,3.8-9.8,5.6-11.3,9c3.5,0.4,7.6-1.5,11-2.3c3-0.7,10-3.8,12.6-2.6c-3.1,2.7-6.2,5.7-9.3,8.5l40.8-13.3
		c-3.7-1.6-9.6-1.7-13.5-1c-1.4,0.2-4.8,1.9-6.1,1.7c-3-0.6,0.3-2.1,0.7-3.6c-3.7-1.8-9.1,1.6-12.9,0.8c1.7-3,3.9-3.6,7.1-4.8
		c1.9-0.7,3.7-1.7,5.2-2.8c3.2-2.3,0.7-1.5-1.7-1.2c-4.5,0.7-8.3-2.3-11.9-2.3c-3.1,0-6.7,2.1-9.8,2.9c-4.9,1.4-11.7,4.4-16.7,4.5
		c-7.4,0.1,2.5-5.1,4.8-6c1.3-0.5,6-1.8,6.4-3.2c0.5-1.9-2.9-2.3-4.3-2.3c-4.1,0.1-9.3,2.6-13.4,1.7c-6-1.2,5.4-5-0.2-8.1
		c-2.9-1.6-9.4-0.2-12.4,0.8c-4.6,1.4-9.2,3.2-13.8,4.7l-0.6,3.3c0.6,0,1.2-0.1,1.7,0.2c-2.2,0.6-8,5.3-7.4,7.6
		c0.8-0.3,3.5-1.4,4.3-0.8c3.8,2.9-11.8,12.1-13.9,13.4c-2.3,1.5-3.4,3.1-0.9,5.2C15.5,369.8,18.8,369.2,20.9,369.3z"/>
	<path class="st2" d="M1980.4,340.7c-5.6,0.9-11.7,3-17,5.3c-7.4,3.2-15,6.1-22.3,9.5c-4.7,2.1-10.6,7.1-15.7,7.4
		c-0.4-3.8,8.5-7.4,9.2-11.1c-3.5,0.3-7.1,3-10.3,4.5c-2.8,1.3-9,5.7-11.9,5.1c2.5-3.3,4.9-6.8,7.4-10.2l-37.4,21.2
		c4,0.8,9.8-0.3,13.4-1.7c1.4-0.5,4.3-2.8,5.7-2.9c3.1,0,0.1,2.1,0,3.6c3.9,1,8.6-3.4,12.5-3.4c-1.1,3.3-3.1,4.3-6,6.1
		c-1.7,1.1-3.3,2.4-4.6,3.8c-2.6,2.9-0.4,1.6,1.9,0.8c4.2-1.5,8.6,0.6,12.1-0.1c3-0.6,6.2-3.4,9-4.8c4.5-2.3,10.6-6.6,15.5-7.7
		c7.3-1.6-1.4,5.5-3.5,6.9c-1.1,0.8-5.6,3-5.7,4.5c-0.1,2,3.3,1.7,4.6,1.4c4-1,8.6-4.4,12.8-4.4c6.1,0-4.3,6,1.8,7.9
		c3.1,1,9.3-1.7,12-3.2c4.2-2.3,8.3-5,12.6-7.4l-0.1-3.3c-0.6,0.2-1.1,0.4-1.7,0.2c2-1,6.8-6.8,5.8-8.9c-0.8,0.4-3.2,2-4,1.6
		c-4.3-2.1,9.2-14.2,10.9-15.9c2-1.9,2.7-3.7-0.2-5.3C1985.6,339.1,1982.5,340.4,1980.4,340.7z"/>
	<path class="st3" d="M987.2,393.7h253.7c0,0-12.9-9.3-50.8-9.8c-37.9-0.5-56-0.8-60.4-6.5S989,373.4,987.2,393.7z"/>
</g>
<rect x="-236.5" y="-308.1" class="st4" width="2506.1" height="624.1"/>
</svg>
