<?xml version="1.0" encoding="utf-8"?>
<!-- Generator: Adobe Illustrator 23.1.0, SVG Export Plug-In . SVG Version: 6.00 Build 0)  -->
<svg version="1.1" id="Балтика_1_" xmlns="http://www.w3.org/2000/svg" xmlns:xlink="http://www.w3.org/1999/xlink" x="0px"
	 y="0px" viewBox="0 0 831.1935425 181.1612854" style="enable-background:new 0 0 831.1935425 181.1612854;" xml:space="preserve">
<rect style="display:none;" width="831.1935425" height="181.1612854"/>
<g id="Балтика" style="enable-background:new    ;">
	<path style="fill:#FFFFFF;" d="M207.2870178,76.4045639c0.9254913,0.249115,2.450119,0.6811218,4.5754547,1.2960129
		c2.1269226,0.6148987,4.5297394,1.4631424,7.2100677,2.5415802c2.6819,1.0784302,5.485199,2.4185944,8.4130554,4.0204773
		c2.9246979,1.6050415,5.6223602,3.4812622,8.0866852,5.6381378c2.4643097,2.1600189,4.5439301,4.6227646,6.2404175,7.3945313
		c1.6933289,2.7749176,2.6645508,5.8872452,2.9120941,9.3369751c1.0468903-0.2459564,2.2325439-0.5833664,3.5585175-1.0153656
		c1.3243866-0.4320068,2.6030579-0.8482437,3.8360138-1.2487183c1.231369-0.4004669,2.3571014-0.7536392,3.374054-1.0626678
		c1.0169373-0.309021,1.7705688-0.4635391,2.2640686-0.4635391s0.8466797,0.1387482,1.0626831,0.4162369
		c0.2160034,0.2774963,0.2617188,0.570755,0.1387329,0.879776c-0.0614929,0.4919205-1.2171631,1.0942078-3.4654846,1.8005447
		c-2.2498932,0.7095032-5.6239471,1.772171-10.1221619,3.1911621c0.1229858,1.2928619,0.2317657,3.0650253,0.3232117,5.3133392
		c0.0930328,2.2514725-0.1072083,4.484024-0.600708,6.7008057c-1.3559265,5.6097565-3.6042328,10.6487503-6.7480927,15.1138535
		c-3.1422882,4.4682617-7.4560242,8.4288177-12.9412231,11.8785553c-5.6081848,3.5758667-12.3862305,6.656662-20.3357544,9.2455292
		c-4.0662079,1.4158478-8.1339874,2.4154358-12.201767,3.0019531c-4.0662079,0.5865173-8.227005,0.8167114-12.4792633,0.6937408
		c-6.1000824-0.4320068-10.398056-1.6491852-12.8939209-3.6515503c-2.4958496-2.0023499-3.2810211-4.7583618-2.3571014-8.2711487
		c1.0469055-3.2668457,3.2952271-6.4548492,6.7481079-9.5671692c3.4497223-3.1123352,8.256958-6.1489716,14.4201202-9.106781
		c2.9578094-1.4789124,5.8998566-2.9420547,8.827713-4.3894272c2.9262848-1.4473724,6.1000977-2.9136658,9.5198822-4.3925705
		c3.4213409-1.4789047,7.1942902-3.033493,11.3235626-4.6669159c4.1276855-1.6334152,8.8119507-3.3740463,14.0511932-5.2218933
		c0-2.8978958-0.5549927-5.9313889-1.6633759-9.106781c-1.1099701-3.1722412-2.7134399-6.2057343-4.8072357-9.1036377
		c-2.0953827-2.8947449-4.6385345-5.5782166-7.6263123-8.0409622c-2.9893341-2.465889-6.3633881-4.4682465-10.1221466-6.0102234
		l-8.8734436-2.494278c-1.9723969,4.1907654-4.0993042,8.3499908-6.3775787,12.477684
		c-5.3622284,9.5514069-10.8158875,18.1505051-16.3625793,25.7909927
		c-5.545105,7.6404953-11.3078003,14.4201279-17.2849121,20.335762
		c-7.7035522,8.2585297-19.1343384,16.9459229-34.2939224,26.0653229
		c-15.0365982,9.059494-32.7550964,13.9881287-53.1507645,14.7922211
		c-18.4264145-0.249115-33.1240349-4.22229-44.0928535-11.9258575
		c-10.9073286-7.6404877-16.5155067-17.9013824-16.8229542-30.779541c0-13.5592651,5.6066008-25.2360077,16.8229542-35.0365219
		c11.2778473-9.8572769,28.0692673-15.0350266,50.3774223-15.5269394c16.144989,0.3689346,28.871788,3.4497299,38.1772308,9.2423782
		c9.428421,5.7327347,14.2356491,12.1718063,14.4201279,19.3203812c-0.0630646,2.5888748-0.6322403,4.8371887-1.7106781,6.7481003
		s-2.3271484,3.5727158-3.7429886,4.9917068h18.4863358c0.4934845,0,0.8781891,0.0441437,1.1556854,0.1387482
		c0.2774963,0.0914459,0.4162445,0.4162369,0.4162445,0.9680634c0,0.554985-0.2160034,0.895546-0.6464386,1.0185242
		c-0.4320068,0.1229782-0.9254913,0.1860428-1.4789124,0.1860428h-20.9837494
		c-2.3429184,1.847847-6.2861404,3.7272263-11.8312531,5.6381302c-2.7733459,0.8640137-5.9944611,1.5388336-9.6601944,2.033905
		c-3.667305,0.4919128-7.872261,0.7694092-12.6180038,0.8293152c-9.9219208-0.1828918-17.7799911-1.2928619-23.5710564-3.3267517
		c-5.8557129-2.0338898-8.843483-4.0362473-8.966465-6.0070724c0-0.9869843,1.0784378-1.4789047,3.2353058-1.4789047h62.4877396
		c2.2183609-1.7879333,3.958992-3.591629,5.2219009-5.4079437c1.2629013-1.8163071,1.8951416-3.9290314,1.8951416-6.3318634
		c-0.2475357-5.6065979-4.9617462-10.4469452-14.1426315-14.5147247
		c-8.9980011-4.1276932-20.7378006-6.2845688-35.2178421-6.4706116c-17.9959908-0.0599136-33.0010567,2.7749176-45.016777,8.5045013
		c-11.7713394,5.6097565-17.9029675,14.3917465-18.394886,26.3459778
		c0.799366,13.8651428,8.4713907,23.3850098,23.0160713,28.5627594c14.481617,5.1777496,30.5966492,7.6720276,48.345108,7.4859772
		c13.5561142-0.1229706,25.60495-1.9865875,36.1417618-5.5908356c10.5383911-3.6042328,19.2573242-8.857666,26.1599274-15.7602844
		c12.3862457-13.1272659,24.8339691-30.9655914,37.3447571-53.5212784c1.1083984-1.9708252,2.1868286-3.9290314,3.2353058-5.8683243
		c1.0469055-1.9424438,2.0638428-3.8691254,3.0508423-5.7800369l-7.3961182-2.1253357
		c-0.6164703-0.1828918-1.0169373-0.3374023-1.201416-0.4603806c-0.1844635-0.1229782-0.0914459-0.4320068,0.2774963-0.9270782
		c0.3074493-0.6748123,0.6148987-1.0752792,0.9239197-1.201416c0.3074493-0.1229782,0.8009491-0.1229782,1.4789124,0
		l7.3030853,1.9424438c4.1276855-8.2585373,7.6862183-15.9747086,10.6771393-23.1548157
		c2.9877625-7.1801071,5.5924072-14.1268692,7.8107605-20.8465919c-3.5127869-1.3527737-7.2573547-2.3397617-11.2321167-2.9578114
		c-3.974762-0.6148987-7.9952393-0.9081573-12.0630188-0.8766232c-4.0662079,0.0315323-8.0724945,0.3689384-12.0157166,1.0153675
		c-3.944809,0.6495838-7.6578369,1.5419731-11.1390991,2.6803226c-3.4828491,1.1415005-6.6550903,2.513195-9.5214539,4.1150818
		c-2.8647919,1.6018829-5.2218933,3.358284-7.0713196,5.2691956c-7.7650452,8.0724945-11.5238037,16.9459343-11.2762604,26.6203156
		c0.5534058,10.1095428,2.6803131,18.5194397,6.3775787,25.2360077c3.7587585,6.716568,5.9156342,10.6613693,6.4706116,11.8312531
		c0,0.8009415-0.309021,1.201416-0.9239197,1.201416c-0.309021,0.309021-1.2644806-0.7694092-2.8663635-3.2353058
		c-1.6034698-2.402832-4.5612793-7.7634735-8.8734436-16.0819244c-2.0338898-4.9317932-3.7603302-9.5514069-5.1761627-13.8651428
		c-1.4190063-4.3137436-2.1584473-8.8419075-2.2183685-13.5908051
		c-0.2475281-10.1662979,3.7887115-18.2387962,12.1087494-24.2174873
		c6.1000977-4.3137398,12.2932129-7.2557869,18.5793457-8.8261395c6.2861481-1.5735054,12.6322021-2.2672367,19.0428925-2.0811901
		c6.407547,0.1860447,12.8482056,0.9554558,19.3188171,2.3113823s12.9553986,2.7591534,19.45755,4.2065277
		c6.5005646,1.4473724,12.9869385,2.6803207,19.45755,3.6956882c6.4706116,1.0185223,12.8639679,1.2802486,19.1816254,0.7851772
		c6.3161011-0.4919186,12.5707092-2.0307369,18.7638245-4.6196117c6.1931458-2.5888748,12.2474976-6.7165699,18.1647034-12.3862362
		c0.5534058-0.4320049,0.9538879-0.4004717,1.201416,0.0914459c-1.2345276,3.8817348-3.2668457,7.5963459-6.1016846,11.1375217
		c-2.8348083,3.5443306-6.2845459,6.8269367-10.3523254,9.8446598c-1.9109192,1.1730347-3.9905396,2.2357063-6.2388611,3.1911621
		c-2.2514648,0.955452-4.7473145,1.6775627-7.4875488,2.1694832c-2.7433777,0.4950676-5.8099976,0.7094955-9.1982269,0.6495819
		c-3.3898163-0.0630646-7.1800995-0.5392189-11.3692932-1.434761c-4.192337-0.8923874-8.8434753-2.2483139-13.9581604-4.0646286
		c-5.1162567-1.8194618-10.8143005-4.2065239-17.1004486-7.1643391c-1.7879333,8.1954746-3.8060608,15.9747143-6.0543671,23.3377132
		c-2.2514648,7.3661537-4.9459839,14.5935555-8.0882721,21.6790657L207.2870178,76.4045639z M229.4721832,127.431572
		c0.2459564-1.1099701,0.4619598-2.2798538,0.6464386-3.5128021c0.1860352-1.2329483,0.309021-2.4185944,0.3705139-3.5600967
		c0.059906-1.1383438,0.0141907-2.1726303-0.1387482-3.0965576c-0.1545105-0.9239197-0.4477692-1.6617966-0.8782043-2.2167816
		c-7.7035522,2.8348312-14.6676636,5.5466843-20.8907318,8.1324081c-6.2246552,2.5888748-11.771347,5.117836-16.6384888,7.580574
		c-9.5529785,4.8056641-15.0996704,9.8604279-16.6384888,15.1611633c-0.3705139,1.7879333-0.2774963,3.3898163,0.2774963,4.8056488
		c0.5549774,1.4190063,1.4930878,2.6204224,2.8190613,3.604248c1.3244019,0.9869843,2.9420471,1.772171,4.8529663,2.3586884
		c1.9093323,0.5865173,4.034668,0.9712219,6.3775787,1.1541138c4.6227722,0.1261292,9.0137634-0.5076904,13.1729889-1.8951416
		c4.1592255-1.3843079,8.1182251-3.5884857,11.8785553-6.6093597c3.8817291-2.9578094,7.008255-6.2530365,9.3811188-9.8888092
		C226.4355316,135.8130951,228.2392426,131.8083801,229.4721832,127.431572z"/>
	<path style="fill:#FFFFFF;" d="M342.3373413,89.4403839c-1.9109192,4.3137436-4.4225159,9.7815933-7.5348511,16.4067154
		c-3.1123352,6.6251297-6.2388306,13.5119705-9.381134,20.6605453c-3.1438599,7.1485748-5.8241577,13.4016113-8.0425415,18.7622528
		c-2.2183533,5.3637848-3.3283081,8.9680328-3.3283081,10.8158722c0,0.4950714,0.07724,0.879776,0.2317505,1.1572723
		c0.1529541,0.2774963,0.4761658,0.4162445,0.9712219,0.4162445c0.7993774-0.1229858,2.2940369-1.0500641,4.4824524-2.7749176
		c2.1868286-1.7248688,4.206543-3.5128021,6.0543823-5.3606415c5.6065979-5.8525696,9.0736694-10.0906219,10.3996277-12.7110291
		c1.3244019-2.6172638,2.2956238-3.8975067,2.9121094-3.8344421c0.3074341,0,0.5691528,0.0599213,0.7851563,0.1828918
		c0.2160034,0.1261292,0.3232117,0.3405609,0.3232117,0.6495819c-0.1844482,1.1068115-1.7090759,3.5727081-4.5754395,7.3945313
		c-2.8648071,3.8218231-5.8699036,7.3346252-9.012207,10.5352478c-1.9108887,1.9109039-4.1134949,3.7145996-6.6093445,5.4079437
		c-2.4958496,1.6964722-4.7299805,2.6361694-6.7023926,2.8190613c-1.9723816-0.0599213-3.742981-0.9396973-5.3149109-2.6330261
		c-1.570343-1.6933289-2.3886414-4.3578796-2.4485474-7.9968109c0-2.5258179,0.5691833-5.4678497,1.7091064-8.8261414
		s2.6645508-6.9625244,4.57547-10.8158875c1.9093323-3.8501968,3.8974915-7.9495087,5.9629211-12.2947845
		c2.0638428-4.3421173,4.1134949-8.7346954,6.1473999-13.1714096c-2.2814331,3.020874-4.5928345,6.1773453-6.9325867,9.4757156
		c-2.342926,3.2952194-4.8072205,6.6692734-7.3961182,10.1221542c-2.5872803,3.4497299-5.3306885,6.9467697-8.2269897,10.4910965
		c-2.8963318,3.5443268-5.9771118,7.0697327-9.2423706,10.5825348c-3.7603455,3.944809-7.4418335,7.3346252-11.0460815,10.1694489
		c-3.605835,2.8348389-7.1343994,4.3452759-10.584137,4.5281677c-2.9593811-0.1828918-5.0390015-1.510437-6.2404175-3.973175
		c-1.201416-2.4658966-1.7721558-5.3921814-1.7090759-8.7819977c0.4304199-12.0772095,6.2388306-24.6179581,17.423645-37.6222458
		c11.184845-13.0011292,25.3117065-20.0267258,42.3822021-21.0767822c1.4788818,0,2.9262695,0.1261368,4.3452454,0.3720932
		c1.415863,0.2459564,2.7102966,0.5518265,3.8817444,0.9239197H342.3373413z M328.4706116,91.3796768
		c-0.4304199,0-0.9554443-0.0914459-1.570343-0.2774887c-0.6164551-0.1828995-1.4789124-0.2774963-2.5888672-0.2774963
		c-14.7890625,1.7280197-27.2541504,10.4942474-37.3904724,26.2986755
		c-10.1379395,15.8075867-15.4228821,28.3641052-15.853302,37.6695557c0,0.8639984,0.1072083,1.5230408,0.3247681,1.9865875
		c0.214447,0.4635315,0.6306763,0.6937256,1.2471313,0.6937256c2.093811-0.2459564,4.7142334-1.7248688,7.8565063-4.4367218
		c3.1438599-2.711853,5.6996155-5.0831451,7.6736145-7.1170349c6.2845459-6.2877197,13.3700562-14.6061707,21.2596741-24.958519
		C317.3173523,110.6086121,323.664978,100.7481842,328.4706116,91.3796768z"/>
	<path style="fill:#FFFFFF;" d="M354.0771484,149.7097626c-0.4934998,1.1698914-0.7095032,2.2167816-0.6464233,3.1407166
		c0.059906,0.9239197,0.3374023,1.6649475,0.8309021,2.2199249c0,0.4320068,0.2932434,0.8482513,0.8782043,1.2455597
		c0.5849304,0.4036255,1.3417358,0.6022949,2.2656555,0.6022949c1.6633606-0.0599213,3.5427551-1.0311432,5.6381226-2.9105225
		c2.093811-1.8793793,4.266449-4.2380524,6.5163269-7.0728912c2.2499084-2.8348389,4.5297546-5.9313965,6.8411255-9.2896729
		c2.3114014-3.3582916,4.4824524-6.5778198,6.5163269-9.6586151c1.0469055-1.6018906,2.5100708-3.7272263,4.3910217-6.3791656
		c1.879364-2.6487885,3.974762-5.4993896,6.2861328-8.548645c2.3098145-3.0524139,4.7441711-6.1016769,7.3015137-9.1540909
		c2.5573425-3.0492554,5.0847168-5.7894897,7.5805664-8.227005c2.4958496-2.4312057,4.8529663-4.3578873,7.0713196-5.7768784
		c2.2183533-1.4158401,4.1276855-1.9708252,5.7311707-1.6618042c2.3413391,0.1229858,4.1592102,1.0942078,5.4536438,2.9105148
		c1.2928772,1.8194656,1.9393005,4.3295059,1.9393005,7.5332794c0,2.7749176-0.5549927,5.3007278-1.6618042,7.5805817
		c-0.4934998,1.1698761-1.201416,2.5731049-2.1268921,4.2065277c-0.9239502,1.6334152-2.0023804,3.5285568-3.235321,5.6854324
		c-3.2668457,7.1485748-6.085907,13.0768127-8.4572144,17.7910156c-2.3728638,4.7173767-4.3294983,8.5518036-5.8699036,11.509613
		c-1.5403748,2.9578247-2.6661072,5.1935272-3.3740234,6.7008057c-0.7095032,1.510437-1.0626831,2.5762634-1.0626831,3.1911621
		s0.2144165,1.1698761,0.6464233,1.6618042c0.4304504,0.4950714,1.0469055,0.7410278,1.8494263,0.7410278
		c1.4174194-0.0599213,2.9578247-0.7410278,4.6211853-2.0338898c0.8624268-0.6148987,1.6018982-1.1856537,2.2183533-1.7091064
		c0.6164856-0.5234528,1.1698914-1.0311279,1.664978-1.5261993c1.6018677-1.7248688,3.1264954-3.43396,4.5754395-5.1304474
		c1.4473877-1.6933441,2.8190918-3.4055939,4.1135254-5.1304626c2.6487732-3.5127869,4.343689-5.3921661,5.0831299-5.6381226
		c0.3058777,0,0.4919434,0.0630646,0.5549927,0.1860352c0.059906,0.1229858,0.0914612,0.3090363,0.0914612,0.5518341
		c-0.2459717,1.1099701-1.9408875,3.6074066-5.0831604,7.4891357c-1.5404053,1.8478394-2.9893494,3.5285645-4.343689,5.0390015
		c-1.3575134,1.510437-2.6503601,2.8789825-3.8833313,4.1119232c-2.0953674,2.2199402-3.9290161,3.7902985-5.4993896,4.7142181
		c-1.5719299,0.9239197-3.2810059,1.3874664-5.1304321,1.3874664c-2.9578247-0.0630798-5.3007202-1.2960205-7.0256042-3.6988525
		c-1.6034546-2.462738-2.402832-5.1430664-2.402832-8.0409546c-0.1844482-2.2199402,0.7394714-5.4836273,2.7733459-9.7973633
		c1.0469055-2.1568756,2.6015015-5.2849579,4.6669312-9.3842773c2.0653992-4.0961609,4.6984253-9.1982346,7.9037781-15.2967529
		c1.3543396-2.6487885,2.6488037-5.1619797,3.8833008-7.5332794c1.2313843-2.3744431,2.402832-4.6385269,3.5112305-6.7954025
		c2.2798462-4.2506714,3.4812622-6.8994598,3.605835-7.9495163c0-0.6779633-0.4619751-1.0153656-1.3874817-1.0153656
		c-1.6633606,0.1229782-3.6972656,1.2329483-6.1000977,3.3267517c-2.4028015,2.0938034-5.0847168,4.884491-8.042511,8.3657532
		c-2.9578247,3.4812622-6.1789551,7.5490494-9.6586304,12.2001877c-3.4828491,4.6543045-7.1028442,9.5987091-10.8616028,14.8363724
		c-1.7879333,2.4658966-3.6373596,5.161972-5.5466919,8.0882568c-1.9109192,2.9294281-3.974762,5.8084106-6.1931152,8.6432495
		s-4.5912476,5.4237061-7.1170349,7.7634735c-2.5274048,2.3429108-5.3007507,4.1592255-8.3200378,5.4552307
		c-4.2522583-0.0630646-7.6105347-1.1572571-10.0748596-3.2825928c-2.4658813-2.1253357-3.8218079-4.8813477-4.0677795-8.2711639
		c-0.6164856-3.4528809-0.3232117-6.2719421,0.8782043-8.4603577c1.201416-2.1852417,2.7575684-3.6168518,4.6684875-4.2979736
		c1.4789124-0.368927,2.9578247-0.0914459,4.4367065,0.832489c1.4789124,0.9239197,2.4958496,2.2199249,3.0508423,3.8817291
		c0.3074646,2.0969543,0.2443848,3.8691254-0.1860352,5.3164978S355.433075,147.9848938,354.0771484,149.7097626z"/>
	<path style="fill:#FFFFFF;" d="M468.8831787,88.3304138c2.462738,0,4.6195984,1.0626755,6.4706116,3.1880112
		c1.8478394,2.1284866,2.831665,5.102066,2.9578247,8.9207382c0,1.7879333-0.3721008,3.7146072-1.1099854,5.7768784
		c-0.7410278,2.0654221-1.8825378,4.5313187-3.4213562,7.3945313c-1.5419617,2.8663712-3.43396,6.4706116-5.6854248,10.8158875
		c-2.2483215,4.3452682-4.884491,9.6586075-7.9022217,15.9463272c3.1438599-4.3768005,5.8525696-8.1481781,8.1355591-11.3235626
		c2.2767029-3.1722412,4.4808655-6.1489716,6.609375-8.9207382c2.1253357-2.7717667,4.57547-5.6381378,7.347229-8.5959473
		c2.771759-2.9578171,6.1931152-6.407547,10.2608948-10.3523483c2.8947449-3.0208817,6.085907-5.9629288,9.5671692-8.8292923
		s6.7954102-4.3894196,9.9360962-4.5754623c2.8978882,0.1229782,4.9602051,1.2644806,6.1931152,3.4213486
		c1.2329712,2.156868,1.8163452,4.5597,1.7564087,7.2084885c0,1.9739761-0.3847046,3.9763336-1.1541138,6.0102234
		c-0.772583,2.0338898-1.9108887,4.4367218-3.4213257,7.2084885c-1.510437,2.7749176-3.4055786,6.4422302-5.6854553,11.0019302
		c-2.2798462,4.5596924-4.9286499,10.2892761-7.9495239,17.1918945c5.2376709-7.3945313,10.2294006-14.003891,14.9751282-19.8280716
		s9.9203491-11.509613,15.5300903-17.0531464c2.8947144-3.0208817,6.4232788-6.1773529,10.5825195-9.4757233
		c4.1624146-3.2952194,7.8738403-5.0673828,11.140686-5.3164978c2.6488037,0.1261368,4.6038208,1.2644806,5.8683472,3.4213486
		c1.2644653,2.1568756,1.8951416,4.6227646,1.8951416,7.3945313c0.2459106,1.7248688-0.2617188,4.0520172-1.5230713,6.9782944
		c-1.2644653,2.9294357-4.8529663,10.0622406-10.7717285,21.4015808
		c-3.0808105,6.0985184-6.0070801,12.0015335-8.7788696,17.6995773c-2.7749023,5.7012024-4.2537842,9.2612915-4.4398804,10.6771393
		c0,0.9239197,0.2333984,1.570343,0.6937866,1.9424438c0.463501,0.3689423,1.0626221,0.5518341,1.8036499,0.5518341
		c1.2329712-0.0599213,2.6330566-0.6905823,4.206543-1.8951569c1.5703735-1.201416,3.124939-2.6014862,4.6669312-4.2033691
		c4.5596924-4.7457428,7.7192993-8.4414368,9.475708-11.0933685c1.7564087-2.6487885,3.005127-4.004715,3.742981-4.0677948
		c0.3689575,0,0.6149292,0.0946045,0.7410278,0.2774963c0.119812,0.1860504,0.1829224,0.3689423,0.1829224,0.5549927
		c-0.309021,1.1099701-2.0496826,3.591629-5.2219238,7.4418335c-3.175354,3.8501892-5.9628906,6.9782867-8.3657227,9.3811188
		c-2.2199707,2.0969543-4.1592407,3.5600891-5.8242188,4.3925781c-1.6618042,0.8293152-3.2037354,1.2770844-4.6195679,1.3401489
		c-2.7749634-0.1261292-5.0548096-1.248703-6.8427124-3.374054c-1.7879639-2.128479-2.711853-4.7930298-2.7717896-7.9968109
		c-0.1860352-1.9708252,0.4919434-4.8214264,2.0338745-8.5518036c1.5388184-3.7272186,4.8971558-10.4910889,10.0748901-20.2884445
		c4.4367065-8.9333572,7.8422852-15.7445221,10.213562-20.4272003c2.3713379-4.6826782,3.5601196-7.3976898,3.5601196-8.1355667
		c0-0.309021-0.1261597-0.5392151-0.3689575-0.6937256c-0.2490845-0.1513596-0.618042-0.2301941-1.1099243-0.2301941
		c-1.355957,0.0630646-3.8817749,1.4631424-7.5806274,4.2065277c-3.6987915,2.7402344-7.7949829,6.3318634-12.2947388,10.7685852
		c-6.0386353,5.9156265-12.6038208,13.3889923-19.6893311,22.4137878
		c-7.0855103,9.0310974-13.6507263,19.2447052-19.6893311,30.6439514H479.881958
		c1.9708252-4.4966278,4.6984558-10.3365784,8.179718-17.5166931c3.4812622-7.1769409,7.0571289-14.4674225,10.7244263-21.8619537
		c3.6641541-7.3945313,6.7922363-13.7106247,9.381134-18.948288c2.5888672-5.2376633,3.9416504-8.1040344,4.067749-8.5959473
		c0-0.554985-0.1260986-0.9396896-0.368927-1.1572723c-0.249115-0.2144241-0.7094727-0.3216324-1.3874512-0.3216324
		c-1.1099548,0.1229782-3.3425293,1.4316025-6.7008057,3.9258804c-3.3614197,2.4974289-6.9183655,5.5939865-10.677124,9.2896729
		c-6.1016846,5.9786911-12.7741089,13.5435028-20.0141296,22.6944351s-14.2498474,19.9825821-21.02948,32.4917984h-12.5691223
		c5.5466919-12.2001953,10.2419739-22.4011841,14.0953369-30.5966492c3.8501892-8.1954803,7.0098267-14.7890701,9.475708-19.7807693
		c2.462738-4.9917068,4.266449-8.6905518,5.407959-11.0933762c1.1383362-2.402832,1.7090759-3.8502045,1.7090759-4.3452759
		c0-0.6748123-0.1545105-1.2140274-0.4635315-1.6176529c-0.309021-0.397316-0.7694092-0.5991287-1.3843079-0.5991287
		c-1.4189758-0.1229782-3.5600891,0.6621933-6.4264526,2.3555298c-2.8632202,1.6964874-6.669281,4.884491-11.4150085,9.5671692
		c-3.2037659,3.2668381-5.3164978,5.6097565-6.3318787,7.0255966c-1.0153503,1.4189911-1.8636169,2.0969543-2.5415649,2.0338898
		c-0.1860352,0-0.3563232-0.0756836-0.5076904-0.2301941c-0.1545105-0.1545105-0.2333374-0.3847046-0.2333374-0.6937332
		c0.5549927-1.9708252,4.0046997-5.9913025,10.3554993-12.0614395
		C457.5722351,92.5684738,463.4594727,89.1313629,468.8831787,88.3304138z"/>
	<path style="fill:#FFFFFF;" d="M598.0147095,87.9614792c3.0209351,0.1229782,5.3449097,1.3716965,6.9783325,3.7429886
		c1.6334229,2.3712997,2.4501343,5.0390015,2.4501343,7.9968185c0.1860352,2.2167816-0.737915,5.4836197-2.7717896,9.7973633
		c-2.0338745,4.313736-6.2246704,12.5407486-12.5722656,24.6810226c-2.711853,5.3007355-5.1903687,10.0748596-7.4418335,14.325531
		c-2.2483521,4.25383-3.43396,6.9026031-3.5569458,7.9495087c0,0.4320068,0.1229858,0.7095032,0.3689575,0.8324738
		c0.2459106,0.1261444,0.5864868,0.1860504,1.0184937,0.1860504c2.1537476-0.309021,5.2975464-2.1884003,9.4284058-5.6381378
		c4.1276855-3.4497223,7.5458984-6.5021362,10.2577515-9.1509247c6.1616211-6.0386047,12.8655396-13.6664886,20.1055908-22.8804855
		c7.2399902-9.2108383,13.8493652-19.4559708,19.828064-30.7353973h12.2947998
		c-6.0418091,12.8813095-11.0933838,23.4953842-15.1611938,31.8453674
		c-4.0646362,8.3531418-7.2557983,14.9151993-9.5671387,19.6893234c-2.3114014,4.7772827-3.9732056,8.2743073-4.9916992,10.4910889
		c-1.0153809,2.2199402-1.4631348,3.7619171-1.34021,4.6227722c0,0.618042,0.1702881,1.0941925,0.5108643,1.4316101
		c0.3374023,0.3405457,0.8450928,0.5108337,1.5230713,0.5108337c2.2798462-0.1229858,4.5596924-1.1257324,6.8395386-3.0051117
		s4.3137207-3.7114563,6.1016846-5.4993896c4.1276855-4.3768158,7.0098267-7.8265381,8.6432495-10.3554993
		c1.6334229-2.5258179,2.7875366-3.8186646,3.4654541-3.8817444c0.3721313,0,0.6149292,0.0630798,0.7410278,0.1860504
		c0.1229858,0.1229858,0.1829224,0.309021,0.1829224,0.5549927c-0.1229858,0.8009338-1.3843384,2.7875214-3.7871704,5.9629211
		c-2.4059448,3.1722412-5.0547485,6.2372589-7.9494629,9.1950684c-1.6050415,1.7280273-3.8060913,3.6231689-6.609375,5.6854401
		c-2.8064575,2.0654297-5.8399658,3.2195435-9.1068115,3.4654999c-3.020874-0.0599213-5.3132935-0.8167114-6.8868408-2.2640839
		c-1.5703125-1.4473724-2.3555298-3.7429962-2.3555298-6.8868561c-0.1260986-2.1568604,0.1513672-4.373642,0.8325195-6.6534882
		c0.6748047-2.2798615,1.9077148-5.146225,3.6956787-8.5991058c1.7879028-3.4497375,4.1591797-7.9495163,7.1170044-13.4930496
		c2.9578247-5.5466919,6.7166138-12.6321945,11.2794189-21.2628326
		c-5.9786987,9.7374496-11.9258423,18.1978073-17.8414307,25.3747559
		c-5.9156494,7.1801071-11.2763062,13.1115036-16.085083,17.7941818c-4.0646362,4.1308441-8.1639404,7.7350922-12.291687,10.8158875
		c-4.1307983,3.08078-7.5490112,4.7425842-10.2608643,4.9916992c-2.3428955-0.1261292-4.1592407-1.0942078-5.4552612-2.9136658
		c-1.2928467-1.8163147-1.93927-4.326355-1.93927-7.5332794c0-2.7717743,0.5391846-5.2975769,1.6176147-7.5774231
		c1.0753174-2.2798462,2.8790283-5.5782318,5.407959-9.8919678c3.2636719-7.0855026,6.0985107-13.0168991,8.5013428-17.7941742
		c2.4060059-4.7741241,4.3295288-8.6117172,5.7800293-11.509613c1.4473877-2.8947449,2.5541992-5.1430664,3.3267822-6.7481003
		c0.7694092-1.6018906,1.1541138-2.6487885,1.1541138-3.1407089c0-0.6148987-0.2144165-1.1698837-0.6464233-1.6649551
		c-0.4320068-0.4919128-1.046936-0.7378693-1.8478394-0.7378693c-1.4789429,0.1229782-3.0366821,0.8009415-4.670105,2.0307312
		c-1.6334229,1.2361069-2.9105225,2.3113861-3.8344116,3.2353058c-3.2037964,3.3898163-6.1174316,6.8269348-8.7346802,10.308197
		c-2.6204224,3.4812698-4.2979736,5.3480301-5.0390015,5.5939941c-0.309021,0-0.4951172-0.0630722-0.5549927-0.1860504
		c-0.0599365-0.1229782-0.0914307-0.309021-0.0914307-0.554985c0.3058472-1.2329483,2.0023193-3.7114563,5.0831299-7.4418335
		c3.0808105-3.7272186,5.8241577-6.792244,8.2269897-9.1982269c2.093811-2.2167816,3.9290161-3.7871323,5.4993896-4.7142105
		C594.4577637,88.4218597,596.1668701,87.9614792,598.0147095,87.9614792z"/>
	<path style="fill:#FFFFFF;" d="M698.4952393,86.296524l-11.553772,26.9924088
		c4.7426147,0.1229782,8.6432495-0.2459564,11.6925049-1.1099625c3.0492554-0.8608627,6.0228271-2.7402344,8.9207764-5.6381378
		c5.5466309-6.1016693,10.1662598-11.7997208,13.8651123-17.1004486s7.9810791-8.1355591,12.8497925-8.5045013
		c1.8478394,0,3.1879883,0.3563309,4.0204468,1.0626678c0.8325195,0.7095032,1.2487183,1.6807251,1.2487183,2.9105148
		c0,0.9869919-0.2175903,3.036644-0.6495972,6.1489716c-0.4319458,3.1123276-1.0153198,4.8529587-1.7563477,5.2218933
		c-0.9239502-0.2459564-1.5703735-1.1541138-1.9393311-2.7276154c-0.3720703-1.5703583-1.6964722-2.478508-3.9763184-2.727623
		c-3.449707,0.6811142-7.4859619,3.9605713-12.1087646,9.8446579c-4.6227417,5.8872528-10.8757935,10.3712692-18.7653809,13.4520645
		v0.5518265c1.2960205,0.1860504,2.8348389,0.7567978,4.6227417,1.7122498
		c1.7879639,0.9554596,3.4812622,2.2041702,5.0831909,3.7429962c3.4528809,4.3768005,6.3791504,10.4627151,8.7819824,18.2577133
		s4.531311,12.1245117,6.3791504,12.9853668c1.6618042-0.6779633,4.1907959-3.2952271,7.5805664-7.858078
		c3.3866577-4.5596924,5.5750732-7.1769409,6.5620728-7.8549042c0.428833,0,0.737854,0.0788269,0.9239502,0.2301788
		c0.1860352,0.1545258,0.2774658,0.4477844,0.2774658,0.879776c-0.4320068,1.0469055-2.6519165,4.004715-6.6566772,8.8734436
		c-4.0046997,4.8687286-7.0255737,8.3499908-9.0563354,10.4437866c-0.8639526,0.8640137-1.7563477,1.5577393-2.6834717,2.081192
		c-0.9238892,0.5234528-2.0023193,0.8167114-3.2352905,0.8766327c-3.0808105-0.0599213-5.4363403-2.0023651-7.0697021-5.8241882
		c-1.6334229-3.8186646-3.743042-9.7342834-6.3319092-17.7468719c-2.9578247-9.1824646-5.4993896-14.8489761-7.6246948-17.0090027
		c-2.128479-2.153717-6.0890503-3.049263-11.87854-2.6803207l-16.6400757,42.8914413H656.991272l28.5627441-72.1006317
		L698.4952393,86.296524z"/>
	<path style="fill:#FFFFFF;" d="M822.7296753,89.4403839c-1.9108887,4.3137436-4.4209595,9.7815933-7.5300903,16.4067154
		c-3.1154785,6.6251297-6.2435913,13.5119705-9.3842773,20.6605453c-3.1438599,7.1485748-5.8242188,13.4016113-8.0441284,18.7622528
		c-2.2167969,5.3637848-3.3267822,8.9680328-3.3267822,10.8158722c0,0.4950714,0.0756836,0.879776,0.2302246,1.1572723
		c0.15448,0.2774963,0.4761353,0.4162445,0.9711914,0.4162445c0.8009644-0.1229858,2.2956543-1.0500641,4.4840698-2.7749176
		c2.1852417-1.7248688,4.2064819-3.5128021,6.0543213-5.3606415c5.6098022-5.8525696,9.0721436-10.0906219,10.3964844-12.7110291
		c1.3244019-2.6172638,2.2956543-3.8975067,2.9136963-3.8344421c0.309021,0,0.5675659,0.0599213,0.7883301,0.1828918
		c0.2144165,0.1261292,0.3216553,0.3405609,0.3216553,0.6495819c-0.1829224,1.1068115-1.7091064,3.5727081-4.5723267,7.3945313
		c-2.8695068,3.8218231-5.87146,7.3346252-9.0153198,10.5352478c-1.9109497,1.9109039-4.1151123,3.7145996-6.609375,5.4079437
		c-2.4974365,1.6964722-4.7299805,2.6361694-6.7039795,2.8190613c-1.9708252-0.0599213-3.742981-0.9396973-5.3132935-2.6330261
		c-1.5703735-1.6933289-2.3902588-4.3578796-2.4501343-7.9968109c0-2.5258179,0.5707397-5.4678497,1.7091064-8.8261414
		c1.1414795-3.3582916,2.6645508-6.9625244,4.5754395-10.8158875c1.9108887-3.8501968,3.897522-7.9495087,5.9629517-12.2947845
		c2.0653687-4.3421173,4.1150513-8.7346954,6.1489258-13.1714096c-2.282959,3.020874-4.5943604,6.1773453-6.9341431,9.4757156
		c-2.3428955,3.2952194-4.8056641,6.6692734-7.3945313,10.1221542c-2.5888672,3.4497299-5.3322754,6.9467697-8.2269897,10.4910965
		c-2.8978882,3.5443268-5.9786987,7.0697327-9.2423706,10.5825348c-3.7619019,3.944809-7.4418335,7.3346252-11.0460815,10.1694489
		c-3.6074219,2.8348389-7.1359863,4.3452759-10.5856934,4.5281677c-2.9578247-0.1828918-5.0390015-1.510437-6.2404175-3.973175
		c-1.201416-2.4658966-1.7721558-5.3921814-1.7091064-8.7819977c0.4320068-12.0772095,6.2404175-24.6179581,17.4252319-37.6222458
		c11.1848145-13.0011292,25.3117065-20.0267258,42.3806152-21.0767822c1.4788818,0,2.9262695,0.1261368,4.3452759,0.3720932
		s2.711853,0.5518265,3.8848877,0.9239197H822.7296753z M808.8676758,91.3796768
		c-0.4351196,0-0.9585571-0.0914459-1.5734863-0.2774887c-0.6148682-0.1828995-1.4788818-0.2774963-2.5888672-0.2774963
		c-14.7890625,1.7280197-27.2541504,10.4942474-37.3920288,26.2986755
		c-10.1379395,15.8075867-15.4229126,28.3641052-15.8517456,37.6695557c0,0.8639984,0.1071777,1.5230408,0.3247681,1.9865875
		c0.2144165,0.4635315,0.6306763,0.6937256,1.2455444,0.6937256c2.093811-0.2459564,4.7142334-1.7248688,7.8580933-4.4367218
		s5.6980591-5.0831451,7.6719971-7.1170349c6.2846069-6.2877197,13.3701172-14.6061707,21.2597046-24.958519
		S804.0588989,100.7481842,808.8676758,91.3796768z"/>
</g>
</svg>
