<?xml version="1.0" encoding="utf-8"?>
<!-- Generator: Adobe Illustrator 23.1.0, SVG Export Plug-In . SVG Version: 6.00 Build 0)  -->
<svg version="1.1" id="Слой_1" xmlns="http://www.w3.org/2000/svg" xmlns:xlink="http://www.w3.org/1999/xlink" x="0px" y="0px"
	 viewBox="0 0 343.5484009 402.8709717" style="enable-background:new 0 0 343.5484009 402.8709717;" xml:space="preserve">
<rect style="display:none;" width="343.5484009" height="402.8709717"/>
<g id="Якорь">
	<path style="fill:#FFFFFF;" d="M193.6636353,95.9023056c0.6113434,0,1.1701813-0.0193176,1.7273712,0.0029526
		c6.3725281,0.2546768,12.7456512,0.4967651,19.116745,0.7840271c2.6648712,0.1201553,5.3261871,0.3270721,7.9873505,0.5189209
		c1.6137543,0.1163483,2.1754303,0.7145309,2.1815338,2.3243027c0.0138245,3.6413651,0.0129547,7.2828751-0.0049896,10.9241943
		c-0.0026398,0.5380249-0.1481628,1.0738678-0.196579,1.6135025c-0.059845,0.6673126-0.3885193,0.9886093-1.0702515,1.0470886
		c-1.6882629,0.1448441-3.3691864,0.4052658-5.0595245,0.4900131c-4.3590698,0.2185898-8.7231445,0.3368607-13.0824738,0.5508804
		c-6.595108,0.3237762-13.187088,0.71138-19.7819214,1.0413513c-7.6156769,0.3810349-15.2322388,0.5341492-22.8542328,0.1081848
		c-6.0501709-0.3381195-12.1044769-0.6026535-18.1572418-0.8936768c-0.5173645-0.0248795-1.036972-0.0032959-1.6459961-0.0032959
		c0.0251007,0.9815903-0.3201599,1.8951035,0.7380676,2.6700134c1.5868378,1.1619797,2.4609833,2.8709641,2.9068909,4.770668
		c0.3209991,1.3675461,1.0080109,2.3938293,2.2079468,3.1850281c1.635788,1.078598,2.6979218,2.6561203,3.2810974,4.5293045
		c0.2920685,0.9381409,0.7427979,1.5603485,1.7283325,2.0349121c2.0408173,0.9827271,3.5668335,2.5804138,4.423645,4.7563019
		c0.1593323,0.4046478,0.5228577,0.8065338,0.8984222,1.0343933c1.366806,0.8292389,2.7783966,1.5846558,4.174469,2.3654327
		c0.0747223,0.0417938,0.1620178,0.0610962,0.3381195,0.125473c0.301651-7.8436279,0.6011963-15.6327362,0.9025116-23.4677582
		c0.7863464,0,1.5164948,0,2.358551,0c-0.265274,8.0413971-0.528717,16.0277405-0.7921753,24.0140839
		c0.0623779,0.0070038,0.1247406,0.0140076,0.1871185,0.0209961c0.1318054-1.1043396,0.3336487-2.2055054,0.3838501-3.3135376
		c0.2908325-6.4177399,0.5411377-12.8372955,0.8235626-19.2554245c0.0193787-0.4404373,0.1885986-0.8742828,0.2881317-1.3111877
		c0.1125031,0.0056381,0.2249756,0.0112839,0.3374634,0.0169373c0.0697632,0.6044769,0.2050781,1.2096634,0.1984863,1.8133087
		c-0.0380249,3.4840546-0.1110382,6.9677124-0.1694183,10.451561c-0.0796204,4.7506104-0.1451416,9.5015259-0.249588,14.2515717
		c-0.0130005,0.5912323,0.1291199,0.9252625,0.7115631,1.0862427c0.3844604,0.1062622,0.7443695,0.3013916,1.2091217,0.4960175
		c0.0802307-9.324234,0.159729-18.5636215,0.2399902-27.8900299c1.9505005-0.1118164,3.8567963-0.2210999,5.8832092-0.337265
		c0.4658508,11.1592178,0.9294891,22.2646179,1.3930969,33.3700256c0.0614166,0.0097961,0.1228333,0.0195923,0.1842499,0.0294037
		c0.0563507-0.3924255,0.1665039-0.7856293,0.1606598-1.177124c-0.051651-3.4602661-0.0861053-6.9214478-0.1982117-10.3800049
		c-0.2088623-6.443985-0.4697723-12.8862686-0.6996765-19.3295975c-0.0297394-0.8332367-0.0040894-1.6684799-0.0040894-2.57798
		c0.9420624,0,1.7652283,0,2.6523132,0c0.0169525,0.1212234,0.0558777,0.2915802,0.0625763,0.4631958
		c0.3605804,9.2232285,0.7286377,18.4461823,1.066925,27.6702423c0.0588074,1.6036835-0.0432587,3.2128143-0.0054779,4.8178864
		c0.021698,0.9224396,0.1281738,1.8497009,0.2815247,2.7604523c0.1785278,1.0601654,0.7888947,1.8048096,1.8515778,2.1304016
		c0.6913605,0.2118378,1.3761139,0.4454956,2.0687866,0.6528473c1.8241119,0.546051,3.2982483,1.5957794,4.3593597,3.1646423
		c0.7064056,1.0444031,1.6305389,1.7193604,2.8038635,2.1265259c2.52388,0.8758545,4.4547729,2.4533234,5.628479,4.8882446
		c0.3929443,0.8151855,1.036087,1.3486938,1.821228,1.751709c2.5031738,1.2849274,4.0804749,3.3018341,4.7254333,6.0402985
		c0.2766113,1.1744843,0.8358917,2.1453247,1.6992798,3.0210114c1.6856232,1.7096558,2.654129,3.8217163,2.5477753,6.2348785
		c-0.0945587,2.1456604,0.1691437,4.1464691,1.0378418,6.1272888c0.7943726,1.8113861,0.6556396,3.7136536-0.0394897,5.5617828
		c-0.6038055,1.6053314-0.8896484,3.2198486-0.7362366,4.9720917c0.1722565,1.967514-0.6201324,3.720871-1.8921814,5.2238617
		c-0.4367981,0.5160675-1.0061798,0.9230957-1.4217377,1.453125c-0.6218414,0.7931671-1.176651,1.6408997-1.7284851,2.4860077
		c-0.2330017,0.3568268-0.3791046,0.7694855-0.5764465,1.1506958c-1.0514679,2.0312958-2.6702881,3.3285522-4.9287567,3.7869415
		c-1.3993225,0.2840271-2.6871948,0.8005981-3.7277527,1.8116302c-1.9044037,1.8503265-4.1828461,2.6369324-6.8276367,2.629837
		c-1.7977753-0.0048065-1.7980347,0.0939331-3.012558,0.7242126c-0.0461273-0.3949432-0.0979309-0.7649994-0.1304016-1.1367645
		c-0.0330811-0.3787994-0.0471344-0.7592621-0.0795593-1.3088684c3.7379608,1.98349,6.7693329,0.4496307,9.7603607-1.7960052
		c-0.2763824-0.2172394-0.5057678-0.470459-0.7908783-0.6086731c-1.0805969-0.5238495-1.8772125-1.351944-2.4676819-2.358139
		c-0.807785-1.3764801-1.9907684-1.974884-3.5466766-1.9373779c-0.7684326,0.0185089-1.5371246,0.0469208-2.3054352,0.0403595
		c-0.3203888-0.0027313-0.6400909-0.0849304-0.9556885-0.1303406c-0.000061-0.5770721,0.2395782-0.8201904,0.6993713-0.8321686
		c0.9013062-0.0234985,1.8045807-0.072052,2.7037506-0.0334625c0.4415436,0.0189514,0.7721558-0.0516968,1.0945892-0.3633423
		c0.4545898-0.4393463,0.9532318-0.8334503,1.4375458-1.2415619c0.7861938-0.6624908,1.6280518-1.164566,2.6774597-1.3701782
		c1.6000519-0.3134918,2.8320923-1.1092987,3.5057983-2.7434692c0.6245422-1.5149841,1.5628052-2.8568115,3.1001129-3.6566772
		c0.1403656-0.0730286,0.197525-0.4098969,0.2009735-0.6257477c0.0241394-1.5078125-0.0727386-3.0250397,0.0671387-4.5207214
		c0.0865326-0.9253845,0.5556793-1.8097839,0.7804565-2.7303162c0.0762177-0.3121338,0.0294189-0.7374725-0.1317596-1.0101624
		c-0.7106934-1.2022858-1.0479889-2.4932251-1.0868073-3.874527c-0.0279541-0.9950256-0.0468445-1.9903259-0.0675812-2.9855652
		c-0.0128479-0.6164398-0.2029419-1.1534424-0.6855469-1.5628357c-1.7766266-1.5071259-2.57901-3.550705-3.1774292-5.7164917
		c-0.0742035-0.2684937-0.2719421-0.5856934-0.5043335-0.7148285c-2.4105072-1.3394012-4.4321136-3.0407867-5.5435486-5.6558838
		c-0.0923615-0.2173157-0.3568268-0.4544373-0.5825958-0.5078735c-2.7012939-0.6393127-4.7349396-2.2729797-6.51474-4.3001709
		c-0.1188354-0.1353455-0.2563019-0.2549133-0.3908691-0.3753662c-0.0258789-0.0231628-0.0788116-0.0160828-0.2110901-0.0385437
		c0,0.5251617-0.0138855,1.035965,0.0021362,1.5458374c0.1705475,5.4262695,0.3289032,10.8529968,0.5237122,16.2784119
		c0.3149567,8.7716675,0.6729736,17.5417938,0.9774475,26.3138123c0.1962128,5.6529388,0.3609619,11.306427,1.2324219,16.9082489
		c0.3792725,2.4380035,0.8583679,4.8575134,1.8870239,7.1213989c2.0666046,4.5482025,5.666626,6.9646301,10.5754852,7.5089264
		c3.8702087,0.429184,7.6207733-0.2486877,11.3081512-1.3415833c5.2824554-1.5656281,10.2978973-3.7213898,14.6617889-7.1530151
		c3.2709198-2.572113,6.0589752-5.6286774,8.4802856-9.0140533c0.3015594-0.4216461,0.5472565-0.8838654,0.8095245-1.3327332
		c0.1002502-0.1715698,0.174408-0.3583832,0.2957001-0.6120148c-5.3068695-0.0016632-10.6198578,0.6134338-15.8470612-1.5185699
		c0.3316956-0.2324371,0.5193939-0.3699646,0.7129059-0.498703c2.5415802-1.6912994,5.0635681-3.4131317,7.6311798-5.0639191
		c3.3979187-2.1846466,6.312912-4.899826,8.9916229-7.9012756c4.9452362-5.5410614,8.822464-11.7371368,11.4801331-18.6770172
		c0.7269287-1.8981934,1.3163147-3.8489838,1.9748077-5.7735901c0.0773468-0.2260437,0.1927948-0.4390564,0.3652649-0.8253784
		c0.4575653,0.7701111,0.8846588,1.3802643,1.2036285,2.0425262c3.2454987,6.7382202,5.4320374,13.7731171,6.0711365,21.2664642
		c0.6491089,7.6105804-0.3120117,15.0450897-2.4207153,22.3327332c-1.1229858,3.8809967-2.5523529,7.6733246-3.8453369,11.5050354
		c-0.0425262,0.1260529-0.1058807,0.2450562-0.233139,0.53508c-0.5136414-0.6541748-1.0668793-1.1725159-1.3930206-1.8075562
		c-1.1853333-2.3080597-2.3161316-4.64505-3.421463-6.9928131c-0.4111938-0.8733978-0.6956024-1.806488-1.0861664-2.8402863
		c-0.2644043,0.3455811-0.4993896,0.6006775-0.6757507,0.8913727c-1.5482025,2.5517731-2.9669952,5.1911621-4.647049,7.6523285
		c-7.8623505,11.5179443-10.9563904,15.9785309-24.4403229,24.4503326
		c-5.3514404,3.3622131-11.0317688,6.1046753-16.7520752,8.7692566c-3.7529449,1.7481689-7.4568176,3.5957336-10.8132782,6.0533752
		c-5.3508148,3.9179688-9.4597321,8.9042358-12.5968628,14.7204285c-0.0204468,0.0379028-0.0569458,0.0671692-0.1572723,0.1822815
		c-0.3915863-0.4501038-0.8061829-0.8544922-1.1367493-1.3186951c-1.7180939-2.4127197-3.2956696-4.9362793-5.1457672-7.2416992
		c-3.0507813-3.8015747-6.8497925-6.7947083-11.1363831-9.0722656c-5.0278168-2.6713562-10.1571503-5.1533203-15.2648468-7.6719971
		c-6.8454132-3.3755493-13.1786118-7.4509583-18.9729309-12.4881592
		c-5.0139084-4.3587799-8.9455109-9.4971313-12.5135345-14.9892426c-1.8718872-2.8813019-3.6089401-5.8502045-5.4124908-8.7760925
		c-0.2330627-0.3780975-0.4999084-0.7353516-0.8128204-1.1923981c-1.7065887,4.0654144-3.0299911,8.1961517-5.9574432,11.6659851
		c-0.1734772-0.3817749-0.295517-0.6326141-0.4030228-0.8895569c-2.592453-6.1953278-4.5945816-12.5597687-5.5875168-19.2231903
		c-1.5778961-10.5890808-0.5749817-20.883255,3.4907532-30.8249054c0.7688751-1.8800964,1.6598816-3.7108612,2.5203781-5.5522919
		c0.1751328-0.3747406,0.4665146-0.6951294,0.7954636-1.1729889c0.3196869,0.8179016,0.5927734,1.4790802,0.8381271,2.1504517
		c1.4042587,3.8424225,2.7189941,7.7192841,4.6568222,11.3448486c2.1444397,4.0121613,4.8436356,7.6430664,7.7364883,11.1222534
		c3.3335724,4.0092773,7.265564,7.364624,11.7053299,10.1130676c1.6917725,1.047287,3.3808899,2.098938,5.0660172,3.1568756
		c0.3366623,0.2113647,0.6496506,0.460434,1.1143188,0.7927856c-5.2246933,1.7885132-10.4298019,2.032135-15.8838196,1.3863678
		c0.1896667,0.3734131,0.2669678,0.5451508,0.3607178,0.7073669c4.7765579,8.2648315,11.8941269,13.5885162,20.853447,16.5899506
		c3.6104431,1.2095337,7.2774048,2.1759796,11.0995941,2.4078674c2.9780579,0.1806488,5.8817902-0.0985413,8.554184-1.5709686
		c2.8925476-1.5937195,4.5756378-4.1623535,5.6859283-7.1744232c1.079834-2.9294891,1.6677094-5.9800568,1.8492584-9.0746155
		c0.3987427-6.7963257,0.6878967-13.5994873,0.9763947-20.4018097c0.3278656-7.7303314,0.6009216-15.4629822,0.9075775-23.1942291
		c0.3164825-7.9787598,0.6975861-15.9554596,0.9374542-23.9364471c0.0777435-2.5869904,0.3930206-1.8300781-1.8077087-3.0948944
		c-1.6317444-0.9378204-2.9335632-2.1495972-3.9420929-3.7340546c-0.3248291-0.5103149-0.8335724-0.9432983-1.3424835-1.2866211
		c-0.6517639-0.439682-1.3755493-0.78125-2.0915833-1.1151428c-1.7945404-0.8367767-2.980011-2.2541962-3.8040161-3.9947205
		c-0.4252472-0.8982086-1.0650177-1.5435028-1.8848114-2.070694c-0.7973175-0.5126953-1.5954132-1.0377808-2.323761-1.6412506
		c-1.3304138-1.1022797-2.1329346-2.5622559-2.5870514-4.2132416c-0.1835632-0.6673431-0.5502472-1.1298981-1.134903-1.5217133
		c-2.3544006-1.5779572-3.9689331-3.6742325-4.326767-6.5740433c-0.1139679-0.923584-0.6540375-1.5595779-1.299469-2.1518173
		c-1.2382202-1.1361923-2.2484131-2.4406433-2.6291809-4.1072922c-0.2101288-0.9197311-0.2315979-1.8810654-0.3720551-2.818573
		c-0.2745209-1.8323669-0.1625519-1.9446411-2.0433655-2.2023315c-2.0263672-0.2776337-4.1011505-0.1941299-6.1538086-0.2896271
		c-1.6902618-0.0786209-3.3793335-0.1840439-5.0683746-0.2867813c-0.7049103-0.0428772-1.1164093-0.4762421-1.2879944-1.1161957
		c-0.1571426-0.586113-0.338356-1.1925125-0.3378372-1.7898178c0.0031433-3.6404648-0.0155563-7.2834854,0.1184692-10.9202957
		c0.0753632-2.0449448-0.079361-1.8533783,2.012085-2.0575409c2.021904-0.1973801,4.0644455-0.177269,6.0965195-0.2803574
		c0.5610504-0.0284653,1.1253128-0.1199646,1.6735229-0.2460098c0.8352509-0.1920395,1.1566162-0.5600128,1.1706238-1.4205933
		c0.0117188-0.7202148-0.0496216-1.4474182-0.1453705-2.1625748c-0.365509-2.729805-0.056366-5.3011551,1.4656525-7.6905975
		c0.3891602-0.6109543,0.6098175-1.4572983,0.582428-2.183197c-0.1082001-2.8668747,1.0559845-5.1366272,3.0594635-7.0488739
		c0.78125-0.7456665,1.3184052-1.6179047,1.5595703-2.650032c0.6443176-2.7576675,2.2888641-4.635994,4.8332672-5.8370514
		c0.5912781-0.2791061,1.2456512-0.8243484,1.4732361-1.4035339c0.8652954-2.2020721,2.5524292-3.5005493,4.5935211-4.3625031
		c1.0953522-0.4625626,1.4268951-1.0564728,1.4866028-2.2325058c0.4210815-8.2926598,4.3214874-14.5675507,11.3586273-18.8678017
		c14.7705078-9.0259609,31.9925537,0.6680603,35.0083618,15.5204773c0.7907867,3.8945198,0.6043091,7.7726097-0.6919403,11.514431
		c-0.7704163,2.2239532-0.3187561,4.2176132,0.4781799,6.2380905c0.2550964,0.6467667,0.6298218,1.2531586,1.0007477,1.8461456
		c1.425766,2.2792587,1.4038544,4.642868,0.5346222,7.1022568c-0.1762848,0.4988022-0.2466278,1.1340103-0.1031952,1.6304016
		c0.7590485,2.6269226,0.3422394,5.030304-1.0578918,7.3510284c-0.5638885,0.9346542-0.9174652,1.9977875-1.345932,3.0112534
		C193.660141,95.3594513,193.6915894,95.5776672,193.6636353,95.9023056z M167.5766144,156.0512695
		c0,0.4265289,0.0021057,0.6506805-0.0002899,0.8747711c-0.061264,5.7457123-0.1023407,11.491745-0.1887207,17.2370758
		c-0.2179871,14.4989929-0.4721527,28.9974365-0.6810303,43.4965668c-0.1362,9.4539948-0.1309204,18.9131317-1.2044678,28.3256683
		c-0.2690735,2.3593445-0.6436615,4.7017822-1.4530945,6.9546661c-0.6372986,1.7737579-1.8874054,2.7898712-3.7427521,2.8307953
		c-2.4116974,0.0532074-4.8402252,0.0876007-7.2385406-0.1270142c-9.4343109-0.8441772-17.8383942-4.366394-25.4000702-10.0102386
		c-4.8035889-3.5852966-9.1677399-7.6057129-12.9357986-12.2991028
		c-6.1533432-7.6644135-10.7208557-16.1855316-14.1137543-25.3721008c-0.5524368-1.4957886-1.0620346-3.0074005-1.6487656-4.6746063
		c-0.0114441,0.2375488-0.0301514,0.3016663-0.0149231,0.3563385c0.5929871,2.1285553,1.0872726,4.2910919,1.8013916,6.3783417
		c4.4028854,12.8689117,11.419693,24.0387573,21.5837402,33.1751099c4.2922287,3.8582611,9.1182861,6.8845825,14.1923676,9.5612793
		c5.5733795,2.9401398,11.4302979,5.198822,17.3814087,7.2305298c5.5916595,1.9089966,10.6545258,4.6270447,14.3878326,9.3882141
		c0.1819458,0.2320251,0.4280701,0.4136353,0.7250366,0.695282c0.0154114-0.2668457,0.0267792-0.3772888,0.0274811-0.487793
		c0.0704041-11.1300049,0.1445313-22.260025,0.2085571-33.3900757c0.0979919-17.0345612,0.1909332-34.0691528,0.2821808-51.1037445
		c0.0488586-9.1167755,0.0914764-18.2335815,0.1244202-27.3504181c0.0008698-0.2383423-0.0703735-0.5886993-0.2332764-0.6954193
		C168.8975067,156.6929626,168.3019257,156.4284668,167.5766144,156.0512695z M120.7438049,111.4032288
		c0.3768463,0,0.7116928-0.0116425,1.0455322,0.0017395c5.2186737,0.2091675,10.440094,0.3673859,15.6551361,0.6454697
		c8.5785828,0.4574356,17.1507721,1.0357208,25.7298279,1.4830933c7.9140778,0.4126892,15.8233795,0.0782013,23.7278137-0.3657227
		c5.1466217-0.289032,10.2914886-0.6152649,15.4403534-0.8559723c5.2849731-0.2470856,10.5744171-0.3972015,15.8606262-0.6197891
		c1.2851715-0.0541077,2.5670319-0.211525,3.8460388-0.3593597c0.1864014-0.0215454,0.4691467-0.2332764,0.4991455-0.3955307
		c0.0959778-0.5187225,0.0940094-1.0555725,0.1324005-1.6231689c-0.3744354,0-0.6422577-0.0081787-0.9094391,0.0012436
		c-3.3895416,0.1195221-6.7790985,0.2384491-10.1684418,0.3636322c-7.8632965,0.2904358-15.7263947,0.5858612-23.5896912,0.8761902
		c-10.2630768,0.3789291-20.5275574,0.4378433-30.7913513,0.0564117
		c-10.7552032-0.3996658-21.5088348-0.8417816-32.2637711-1.248909c-1.3936005-0.0527496-2.7909241-0.007225-4.21418-0.007225
		C120.7438049,110.0211945,120.7438049,110.6652756,120.7438049,111.4032288z M150.6172791,70.9280548
		c-0.4678802,0.7102509-0.8377228,1.174614-1.1022644,1.6927719c-0.6186218,1.2116852-1.4903412,2.165329-2.7298737,2.7233887
		c-1.4393311,0.6480103-2.2664795,1.6706696-2.6306915,3.2505798c-0.4091797,1.7750092-1.3778534,3.3032684-2.9342651,4.3440323
		c-0.4638824,0.3101959-0.5983582,0.625351-0.5568695,1.1566238c0.1933136,2.4749603-0.2756042,4.7697601-1.9057465,6.7406311
		c-0.1513672,0.1830139-0.235733,0.5120544-0.1965332,0.7475357c0.2573547,1.5465164,0.5572357,3.0859528,0.8584137,4.7095642
		c-0.0380249-0.002655,0.0923157,0.0192108,0.2214508,0.0135727c2.2585297-0.0985031,4.5176239-0.186348,6.7751617-0.3041992
		c6.456955-0.337059,12.9123993-0.7043304,19.3701935-1.0242538c3.5909424-0.1778946,7.1776276-0.2224197,10.7722626,0.1298904
		c1.9901581,0.1950531,4.0162354,0.1361389,6.0196228,0.0463409c1.4790649-0.0662918,1.7706909-0.4331207,1.9347534-1.855278
		c0.2332001-2.0211945,0.7451782-3.915802,2.2893524-5.3673706c0.3907623-0.3673401,0.4463654-0.7412949,0.3420868-1.2668533
		c-0.4005127-2.0185547-0.8066101-4.0384216,0.041748-6.0715714c0.1500854-0.3596802-0.0752869-0.8761368-0.1455994-1.4764328
		c-2.6783295,1.6618652-4.9487762,3.6421967-7.9805756,4.1925964c-0.0353088-0.1497803-0.0702362-0.2345505-0.0733643-0.3204803
		c-0.1054688-2.8931808-0.2175751-5.7862244-0.2928467-8.6802216c-0.0061646-0.2371902,0.1850128-0.5515213,0.3814087-0.7092361
		c0.7570801-0.6079636,1.5477905-1.1749039,2.3378906-1.7404327c0.3622437-0.2592773,0.3407135-0.5077133,0.1066895-0.8486023
		c-0.5497742-0.8008041-1.0963898-1.6062622-1.5914764-2.4411621c-0.2695618-0.4545517-0.5792694-0.6668091-1.1225739-0.6773758
		c-1.3610077-0.0264893-2.6269531-0.4353256-3.7788849-1.1567688c-0.7080688-0.4434586-1.3691711-0.962738-2.0831604-1.3954697
		c-0.2310638-0.1400528-0.5848846-0.207756-0.8455811-0.1477509c-1.8890839,0.4348145-3.7760773,0.5489807-5.5883026-0.2276459
		c-0.9557037-0.4095688-1.7574463-0.3703461-2.6136169,0.1888351c-1.1094208,0.7245636-2.3179474,1.2250366-3.6583252,1.3331909
		c-0.4896851,0.0395203-0.9814301,0.0537796-1.5543518,0.0838776c0.3716278,1.1935959,0.9512024,2.2015762,1.6533203,3.1409302
		c1.0675201,1.428215,2.3582153,2.6260071,3.8861389,3.543869c0.6488037,0.3897552,0.9295349,0.8444519,0.874176,1.6362076
		c-0.116684,1.6684265-0.1360931,3.3442841-0.1708679,5.0176086c-0.0233307,1.1223831-0.0044403,2.2456512-0.0044403,3.4942856
		C158.207962,81.3612289,153.7243805,77.0578842,150.6172791,70.9280548z M244.483429,204.5615845
		c-0.629303,1.61586-1.3008423,3.2166901-1.8806763,4.8500977c-2.6735077,7.531189-6.3036652,14.5488281-11.1348267,20.9294434
		c-5.1492462,6.800705-11.0740814,12.7606049-18.4252319,17.2128601
		c-6.5118256,3.9439392-13.4537506,6.6819153-20.9978485,7.8682556c-1.5492554,0.2436371-3.1088715,0.6143799-4.5704651,1.1713257
		c-1.6374817,0.6240234-2.3031616,2.0494385-2.3608246,3.8482666c1.1722412,0.1544495,2.2803192-0.0286255,3.378067-0.2624817
		c4.065506-0.8660889,7.8974457-2.420929,11.7151184-4.01297c9.6279144-4.0149841,18.2818146-9.4859772,25.4728546-17.1243134
		c7.1207886-7.5637207,12.5027924-16.2379913,16.3913116-25.8529663
		C243.1902161,210.4214783,244.0557556,207.5727386,244.483429,204.5615845z M162.4160461,215.0966339
		c-0.0473175,0.0063934-0.0946503,0.0127716-0.1419678,0.019165c-0.0099487,0.1501923-0.0183258,0.3005219-0.0300751,0.450592
		c-0.26828,3.4250641-0.4586639,6.8585968-0.8281555,10.2727203c-0.3488312,3.2230225-1.093338,6.3691406-2.539978,9.3065491
		c-1.6828613,3.4171448-4.1901245,5.8683929-8.0064392,6.7410736c-2.4659271,0.5638733-4.9565735,0.4863739-7.4026642-0.0448914
		c-2.9109192-0.6322632-5.7881622-1.4194336-8.6811218-2.1348724c-0.2326202-0.0575104-0.4740448-0.0794067-0.7113647-0.1178741
		c0.6566772,0.3948212,1.3319244,0.6425781,1.9824524,0.9437256c3.0308533,1.4029999,6.1790009,2.4250641,9.4775848,2.9700775
		c2.4055328,0.3974762,4.8141479,0.5628967,7.1911316-0.135025c3.6138916-1.0611572,5.918869-3.5659943,7.3050995-6.946228
		c2.5487366-6.2149811,3.1858826-12.7176514,2.7030945-19.3641663
		C162.6858673,216.3996429,162.5246277,215.750061,162.4160461,215.0966339z M209.4508514,239.9266968
		c-0.0285492-0.0819702-0.0571136-0.1639557-0.0856628-0.2459412c-1.0207672,0.2695313-2.0562134,0.4934998-3.0595398,0.8171234
		c-3.0443726,0.9819031-6.1230621,1.7236176-9.348999,1.7666016c-5.6850586,0.0757599-9.8639069-2.3168488-12.199646-7.552597
		c-0.8122101-1.8206329-1.403244-3.7699738-1.8520966-5.7166595c-0.9534149-4.1351166-1.1300201-8.3685913-1.2857361-12.5956726
		c-0.0083923-0.2278595-0.0302887-0.455246-0.0458832-0.6828613c-0.0797577-0.0027924-0.1595154-0.0056152-0.2392578-0.0084381
		c-0.1208344,0.8852234-0.3656006,1.7740479-0.3398438,2.654953c0.0857849,2.9334412,0.1761627,5.8724213,0.4402161,8.7934113
		c0.2666931,2.9501038,0.8443451,5.8545685,1.934433,8.6376038c2.2260895,5.6833038,6.3014374,8.3001099,12.3826904,7.9324341
		c2.7072906-0.163681,5.3126068-0.809906,7.8652649-1.6714935
		C205.5775452,241.3933258,207.507309,240.6395721,209.4508514,239.9266968z M186.3344574,61.2736053
		c-0.0743256-0.7828331-0.1174164-1.3823547-0.1899719-1.9782867c-0.7680206-6.3079872-5.5154877-11.3810959-11.717392-12.4252586
		c-6.4958191-1.093647-12.1216278,1.8181229-15.4743195,7.7036934c-0.2207947,0.3876038-0.3895721,0.8237267-0.4841766,1.2586899
		c-0.0821533,0.3777695-0.0248108,0.7858963-0.029129,1.1806068c0.460495-0.0234947,0.9222107-0.0343628,1.380661-0.0789032
		c0.1226044-0.0119095,0.2427216-0.1163979,0.3513184-0.1957245c2.4410553-1.7829437,5.1196747-2.0694847,7.9179077-1.115242
		c1.2491302,0.425972,2.4377747,0.4586792,3.717926,0.2458878c2.6196899-0.4354401,4.986908,0.1820831,6.9489441,2.0332184
		c0.7652435,0.721981,1.6515198,1.0864029,2.6720886,1.1709099c1.1557617,0.0956993,2.1876068,0.5066795,3.147522,1.1439476
		C185.0948639,60.561718,185.6438141,60.8611374,186.3344574,61.2736053z M159.0723267,138.5354767
		c-0.5208588,1.5319824-0.9691925,2.9671173-1.496994,4.3723907c-0.5999603,1.5973816-0.4508514,3.087204,0.6023254,4.4115143
		c0.6851044,0.8614502,1.4471436,1.6845856,2.2836761,2.3967896c1.0322266,0.8787994,2.2782593,1.3806458,3.7131958,1.6302338
		c-0.2383575-1.6156616,0.2024536-3.0029297,0.7971497-4.3656769c0.3661652-0.8391113,0.4193115-1.7223969,0.1049347-2.5836029
		C163.9955139,141.4353943,161.8437653,139.5844421,159.0723267,138.5354767z M200.8469849,189.5434265
		c0.2628784-0.1630402,0.5198364-0.2495728,0.668808-0.4269104c0.8104095-0.9646149,1.9552917-1.2639771,3.0856171-1.5741577
		c1.2706604-0.3486938,2.0497589-1.1485138,2.4501648-2.3890228c1.0914307-3.3813782-0.3145905-6.1591797-2.0853577-8.9638672
		c-0.255249,0.2818146-0.526001,0.4630432-0.6279449,0.7131195c-0.5155182,1.2644806-1.5182343,2.0376892-2.60466,2.7615814
		c-1.2215729,0.8139343-1.8949127,1.9867859-2.0088196,3.4514618
		C199.5527649,185.3275604,200.1519775,187.4062195,200.8469849,189.5434265z M194.9946442,173.7681122
		c-0.0083008-1.6929169,0.7631531-2.8771515,1.7119751-4.0128479c0.5935364-0.7104492,0.668335-1.6195526,0.4853058-2.5185699
		c-0.3550415-1.7438354-1.2672577-3.1782684-2.5471802-4.3821869c-1.1566467-1.0879517-2.5295105-1.7764587-4.1737671-2.1647644
		c0.2363434,1.6985626-0.3604279,3.1300812-0.9437256,4.5849609c-0.2251129,0.5614624-0.3480682,1.2705994-0.2225189,1.8482819
		C189.9870605,170.2624054,191.9254913,172.3815765,194.9946442,173.7681122z M207.5558777,197.2523346
		c-0.3383942,0.0929565-0.580368,0.1059418-0.7612305,0.217804c-1.1525421,0.7129822-2.396698,0.6717377-3.6777191,0.5479431
		c-0.5262451-0.0508423-1.120575-0.0339966-1.5986938,0.1611176c-2.4629364,1.0050201-4.198761,2.7555542-5.1458893,5.2645416
		c-0.1633301,0.4326935-0.0806274,0.7049561,0.4033356,0.7725525c1.2203064,0.170517,2.2328949,0.78862,3.2392578,1.4463501
		c0.6716309,0.4389801,1.4384918,0.5023499,2.2210541,0.3500671c1.0492096-0.2041473,1.9623718-0.684082,2.7271881-1.4213867
		C207.0207977,202.6077423,207.567749,200.0862427,207.5558777,197.2523346z M166.1671753,144.5199585
		c0.1979218,1.5683594-0.3386383,2.9799957-0.8905487,4.3962402c-0.3613586,0.9272308-0.2928925,1.872879,0.1233215,2.7715759
		c1.3024902,2.8123932,3.5779419,4.3952026,6.5254669,5.1101837c0.1217804,0.029541,0.2569733,0.0037842,0.3909149,0.0037842
		c0-0.7649689-0.0920868-1.5184479,0.0254059-2.2376556c0.1221924-0.7479248,0.5053406-1.4503021,0.6642914-2.1960754
		c0.1235046-0.579483,0.2015076-1.219986,0.0865173-1.7903595
		C172.5055389,147.6656342,169.2264099,144.8072052,166.1671753,144.5199585z M202.6051636,207.1143188
		c-0.2454834,0-0.4424591,0.0018311-0.639389-0.0003052c-0.9861298-0.0106659-1.9801636-0.0959625-2.7315369-0.7992554
		c-1.333252-1.2479553-2.8907471-1.4504089-4.5993652-1.1820526c-2.1842651,0.3430023-3.9475861,1.4141083-5.3464355,2.9038544
		c0.9299011,1.010849,1.8751678,1.9095154,2.6628265,2.9299011c0.828125,1.0728455,1.8471832,1.6222687,3.1721649,1.6452942
		c3.0190582,0.0524445,6.3957367-2.2942657,7.4075775-5.140274
		C202.565979,207.3730774,202.5746307,207.265274,202.6051636,207.1143188z M195.2925568,85.3567123
		c-0.3236237,0.1156387-0.5917511,0.1686935-0.8152618,0.2985916c-1.0605316,0.6163559-2.1985321,0.8448334-3.4197083,0.9262924
		c-0.7532806,0.0502548-1.5749054,0.2871323-2.2059631,0.6905136c-1.0935822,0.6990128-1.8881683,1.7391205-2.4503021,2.9256363
		c-0.5532684,1.1678391-0.8378296,2.4012146-0.9081726,3.647316c1.4380035,0.142334,2.8174591,0.1963882,4.1644592,0.4343338
		c1.4821472,0.2618332,2.6449432-0.164032,3.6825256-1.1961975
		C195.5039063,90.9307022,195.7516022,88.3041534,195.2925568,85.3567123z M143.694809,76.7365036
		c-1.5963898,0.1369629-2.9870148-0.3995972-4.3862152-0.9113007c-0.8270264-0.3024521-1.6415863-0.1950073-2.4419556,0.1390533
		c-2.738266,1.1428986-4.7981415,4.8354568-4.3772888,7.7125015c1.2399597-0.0672379,2.483139-0.2924728,3.6904907-0.1684799
		c2.8369751,0.2913513,4.7724304-0.9906235,6.2339325-3.2371674
		C143.0951691,79.2236862,143.5403137,78.0756454,143.694809,76.7365036z M171.0179596,56.8743401
		c0.1243134,0.319294,0.1689606,0.5782585,0.3082733,0.7674904c0.7095947,0.9638863,0.8100739,2.0604782,0.8486786,3.2122192
		c0.1183472,3.530159,3.3773346,6.3325119,6.8806,6.066864c0.2875366-1.4363098,0.5634003-2.845108,0.8527374-4.251133
		c0.3007202-1.4613991-0.1523132-2.7101746-1.1909943-3.7005005
		C176.5647736,56.9170265,173.9237061,56.5669441,171.0179596,56.8743401z M130.6749878,94.1087799
		c1.2301483-1.4751816,2.8027039-1.5345154,4.3576508-1.7448273c0.6313324-0.0853958,1.289978-0.4312668,1.8049469-0.8287582
		c1.5717468-1.2131958,2.4461365-2.8749161,2.7395782-4.827034c0.1278687-0.850708,0.1588593-1.7159882,0.2262268-2.4873734
		c-1.5792542,0.0463257-3.0189362,0.1089706-4.4591522,0.1254959c-1.7029877,0.0195313-3.0081177,0.6971741-3.841507,2.2086487
		c-0.1959076,0.3553314-0.3998413,0.7100601-0.5536652,1.0841599
		C130.1153259,89.666626,129.960022,91.7316742,130.6749878,94.1087799z M182.2363739,155.1415863
		c0.2392883,1.5096436-0.0691071,2.8870239-0.5569458,4.2391205c-0.4430237,1.2279358-0.2836456,2.3990784,0.3397064,3.5266571
		c1.2698212,2.2969818,3.2199402,3.7372284,5.6887207,4.5231476c0.1611786,0.0513153,0.3345642,0.0642853,0.5687408,0.1072998
		c-0.0083771-1.7744751,0.5788574-3.3353119,1.1444397-4.9142456c0.1849823-0.5163574,0.1925201-1.182663,0.0470886-1.7165833
		C188.727829,158.1890411,185.1960144,155.3786926,182.2363739,155.1415863z M156.2677002,145.2518158
		c-0.1812286-1.7042389,0.384552-3.0353088,1.1479492-4.3214874c0.4388123-0.7393494,0.5722961-1.5564117,0.4051514-2.4172058
		c-0.5584259-2.875885-2.2199402-4.8769836-4.83461-6.1250916c-0.1525726-0.0728302-0.3243561-0.1053467-0.512085-0.1644592
		c-0.0377197,0.1333618-0.0813904,0.2167511-0.0819397,0.300415c-0.0084229,1.2648773-0.4957733,2.2966766-1.3952484,3.1917114
		c-0.7086487,0.7051544-0.9553528,1.6445313-0.8526764,2.6260071c0.3188477,3.048111,2.0973816,5.0443726,4.722641,6.3935852
		C155.2578583,144.9362183,155.6964111,145.0445099,156.2677002,145.2518158z M174.0411682,149.8860016
		c0,0.8509064,0.094635,1.6694946-0.0264587,2.4548187c-0.122467,0.7942505-0.4848022,1.5485382-0.6941986,2.3330994
		c-0.2450256,0.9180603-0.0467834,1.7946014,0.3775024,2.6248016c1.2047119,2.357254,3.1813507,3.7615051,5.6486816,4.5483856
		c0.3749695,0.1195984,0.766449,0.1874695,1.26651,0.3070679c-0.3270111-1.6853485,0.1410065-3.146759,0.6255341-4.6098022
		c0.3330078-1.0055389,0.1645966-1.9667664-0.361084-2.8687897c-0.8921051-1.5308838-2.0630188-2.7982941-3.5856781-3.7206268
		C176.3172302,150.3645172,175.2647858,150.0024872,174.0411682,149.8860016z M199.2260132,181.0514221
		c0.179245-0.2024078,0.3479004-0.317688,0.4101868-0.4750977c0.4997559-1.2624817,1.636261-1.8788147,2.6280518-2.6492767
		c0.9012909-0.7001648,1.295105-1.6510925,1.2811127-2.785965c-0.0338745-2.7493439-1.2527008-4.8995361-3.3511505-6.5904236
		c-0.4963226-0.3999329-1.0583038-0.7183075-1.7106171-1.1548767c-0.1940918,1.8663177-0.9924011,3.2660522-2.0758667,4.5632324
		c-0.3275757,0.3921814-0.4608765,1.0472107-0.4673615,1.5844727c-0.0105286,0.8719482,0.0545502,1.7723083,0.2700806,2.6139221
		C196.6949005,178.0490723,197.6032104,179.7169647,199.2260132,181.0514221z M160.6551819,57.6579628
		c1.6426849,0.6255951,2.0682068,2.0106697,2.544342,3.3996696c0.1885376,0.5500259,0.5349121,1.1196938,0.9679871,1.4994774
		c2.0381775,1.7873573,4.428299,2.3192024,7.0760651,1.8113899c0.5936432-0.1138458,0.6947479-0.3798752,0.5532684-0.9515038
		c-0.2539063-1.0258789-0.4770203-2.069046-0.5884857-3.1182213c-0.1592102-1.4984093-0.8562927-2.5977592-2.1552429-3.3192558
		c-1.3264923-0.7367973-2.7692108-0.9579659-4.2614899-0.8317986
		C163.3369293,56.2707138,161.9700623,56.6723137,160.6551819,57.6579628z M147.2335052,125.1660538
		c-0.1779938,0.3125687-0.3325348,0.6089096-0.5100555,0.8907471c-0.4387054,0.6965027-0.7686615,1.5174408-1.3566132,2.0528946
		c-1.4327087,1.3048096-1.7585754,2.8397217-1.2844849,4.6162872c0.7209778,2.7017212,2.4219971,4.559021,4.8623962,5.675354
		c0.3731079-0.9559021,0.6934357-1.8613434,1.0815125-2.7367401c0.2086945-0.4707184,0.5298462-0.8922424,0.8068085-1.3318329
		c0.8592072-1.3638,0.9785614-2.7984619,0.3561249-4.2742004
		C150.3594666,128.0913391,149.2509613,126.3332291,147.2335052,125.1660538z M151.4090729,61.1052055
		c0.1906586,0.123127,0.3625183,0.2806396,0.5649719,0.3571129c1.093399,0.4130096,1.879425,1.1347809,2.545639,2.1087837
		c0.9989319,1.4604301,2.4886169,2.1714897,4.2583313,2.0699348c1.0506592-0.0602875,2.1037292-0.2727661,3.1287842-0.5259552
		c0.8596802-0.2123489,1.6013336-0.6943817,2.1624908-1.487896c-1.184082-0.9313622-1.8131561-2.1976318-2.3375244-3.5340919
		c-0.3651886-0.9307823-1.0735168-1.4778862-2.0101929-1.7725677
		C157.0150452,57.4690475,153.8406372,58.2105904,151.4090729,61.1052055z M142.5624237,130.9483032
		c0.2372589-0.3963013,0.4941711-0.7183685,0.6369324-1.0849152c0.3596649-0.9234467,0.8794403-1.7093506,1.6053619-2.3972321
		c0.8170013-0.7741852,1.2491608-1.7866135,1.2856445-2.9101791c0.0919037-2.8301926-1.1014557-5.0646057-3.2789917-6.8111115
		c-0.1094818-0.0877991-0.2623901-0.1214142-0.4412384-0.200737c-0.2692108,1.3937683-1.0839233,2.3255768-2.2014313,3.0220413
		c-1.1751251,0.7323303-1.6394806,1.8281784-1.6142426,3.1612549
		C138.6126862,126.8023758,140.1862793,129.0405273,142.5624237,130.9483032z M156.3884888,66.0207138
		c-1.6587524-0.2020187-2.4402771-1.3995743-3.2852173-2.5561028c-0.5121307-0.7009888-1.2824402-1.0895462-2.1477966-1.1637573
		c-3.0219116-0.2591362-5.2521973,1.1290016-6.9897308,3.4662056c-0.2721405,0.3660583-0.4314728,0.8160324-0.6348572,1.2114487
		c0.1155396,0.0851135,0.1472778,0.1227646,0.1869202,0.1351852c0.1503143,0.047081,0.3009491,0.1091614,0.4554901,0.1242676
		c1.153717,0.1127167,2.0413513,0.6919937,2.9042816,1.4407425c0.5217896,0.4527512,1.2380219,0.7758789,1.9187164,0.9339447
		C151.3723755,70.2108307,154.985611,68.5183029,156.3884888,66.0207138z M136.7256165,74.8972778
		c1.7716827-0.4695892,3.2019043,0.0951157,4.6489258,0.7353287c0.5489807,0.2428818,1.2382355,0.3035812,1.8470917,0.2521896
		c2.4029999-0.2028198,5.3573456-2.6836624,6.0996704-5.0982437c-0.4285431-0.167305-0.8768311-0.3101273-1.2960052-0.5130997
		c-0.7231903-0.350174-1.4985962-0.6464081-2.1256409-1.1295242c-1.1378174-0.8766556-2.3592987-1.1447754-3.6912842-0.7255173
		C139.1110535,69.3933258,137.556015,71.7195435,136.7256165,74.8972778z M193.8935394,75.0177307
		c-0.7590027,1.7240295-2.2655792,2.4312668-3.7855225,3.1732025c-0.5326996,0.260025-0.9764709,0.8061066-1.3274841,1.3138275
		c-0.7889862,1.1412354-1.1243744,2.4532318-1.1803284,3.8350372c-0.0431366,1.0653305,0.0128937,2.1145859,0.496109,3.0446777
		c1.6178436-0.3307266,3.1971436-0.6022644,4.7449493-0.9972839c0.5563202-0.1419754,1.1596832-0.4745102,1.5314941-0.902626
		C196.4370422,82.1077194,196.2306671,77.4180679,193.8935394,75.0177307z M207.5437164,186.701416
		c-0.1567841,0.1275482-0.3136139,0.2218933-0.4277649,0.353302c-0.8036041,0.9252014-1.8304291,1.414856-3.0108795,1.6954193
		c-0.5525055,0.1313171-1.1456451,0.3753662-1.5627594,0.7458801c-2.4159088,2.1459961-2.6430664,4.967392-2.4026794,8.012619
		c0.4150085-0.0627441,0.7419586-0.1220703,1.0713654-0.1600342c0.8908081-0.1026611,1.7919006-0.3280334,2.6721954-0.2662964
		c1.889801,0.1325378,3.1114655-0.71492,3.8908691-2.335144c0.8655548-1.7993469,1.1268616-3.7082672,0.8537598-5.6758575
		C208.5070801,188.2014008,208.243576,187.3577728,207.5437164,186.701416z M180.8286591,59.9906731
		c0,0.7651176,0.0736084,1.4691772-0.0178986,2.1510658c-0.1257172,0.9368248-0.375824,1.8570023-0.573822,2.7840576
		c-0.4320984,2.0230255,0.5411987,4.4794388,2.2763214,5.6796799c0.2258911-0.2022858,0.4836578-0.3899384,0.6889038-0.6237488
		c1.7131195-1.9515152,2.5717926-4.2736206,2.9078522-6.8135986c0.0212555-0.1606522-0.0145569-0.3837051-0.1148376-0.4973373
		C184.6161041,61.1082687,182.9717102,60.0486145,180.8286591,59.9906731z M137.510437,122.5852509
		c0.2670441-0.4914627,0.4328461-0.9208908,0.7041168-1.2677994c0.4488983-0.5740738,0.8823242-1.2186356,1.469574-1.6151733
		c1.7905273-1.2090454,2.598587-3.2264786,1.9952545-5.4091721c-2.2403259,0-4.4947357-0.0089264-6.748703,0.0185699
		c-0.1633606,0.0019836-0.4363708,0.2493134-0.4651489,0.4159622c-0.1106873,0.6410294-0.2137604,1.2981186-0.1914063,1.9447708
		C134.3587189,119.1182175,135.8648682,120.8085556,137.510437,122.5852509z M137.7985992,92.4037933
		c-1.6597595,0.4463959-3.2445068,0.8660889-4.8254242,1.2997589c-1.4132385,0.3876724-2.3331909,1.5121384-2.4936676,3.0683823
		c2.5214386-0.1334457,5.0344849-0.2664566,7.570755-0.4006882
		C138.4328461,94.9721298,138.1621094,93.6646729,137.7985992,92.4037933z"/>
	<path style="fill:#FFFFFF;" d="M112.6411057,245.0572205c0.4680481,0.5042572,0.9869003,1.0632477,1.5500488,1.6699829
		c-1.3605881,1.2208862-2.8461685,2.2892303-3.5659561,4.028717c-0.7201996,1.7404938-0.5630569,3.5361328-0.4210434,5.4787292
		c0.3199081-0.1969604,0.5388565-0.3818512,0.7915421-0.4779968c0.7681351-0.2922668,1.5830917-0.8498383,2.3192444-0.7667999
		c2.4604797,0.2775726,4.0309525-0.9566803,5.4114609-2.7101593c0.1958389-0.2487488,0.3645706-0.8106995,0.7923584-0.4721527
		c0.378746,0.2996826,0.2885284,0.8136597-0.0814896,1.1372375c-0.9569626,0.8368683-1.0703812,1.8565063-0.809906,3.0255432
		c0.3460846,1.553299,0.2847748,3.1048737-0.2455978,4.6161041c-0.3884659,1.1068726-0.2232056,2.0499573,0.6000824,2.9324646
		c1.2343063,1.3231201,1.6179123,3.0034485,1.7419968,4.7445679c0.0410233,0.575531,0.1904068,0.9533997,0.7490387,1.2099609
		c1.8504715,0.849823,3.2691498,2.1683655,4.1267242,4.0393066c0.4012451,0.8753967,0.9713974,1.3285217,2.0196228,1.3308411
		c1.2732849,0.0028076,2.4828339,0.4317932,3.5982819,1.0834351c0.5262451,0.3074341,1.0585175,0.6201477,1.6233368,0.8395386
		c0.3004608,0.1166687,0.7200012,0.1485596,1.0110016,0.0319824c2.109848-0.8454895,4.2308502-1.4249268,6.5342255-0.8438416
		c0.3890991,0.0981445,0.8814545-0.0893555,1.2918854-0.2388306c0.3305206-0.1203918,0.6242828-0.3635864,0.9087067-0.5852356
		c1.9447327-1.5153198,4.1518555-2.1569214,6.5977478-1.9734802c0.474762,0.035614,0.7256317-0.1288147,0.9491577-0.5408936
		c0.3888702-0.7167969,0.9554291-1.2725525,1.8005981-1.4213867c0.2931213-0.0516052,0.6029663-0.0082092,0.9578705,0.1472168
		c-0.6604309,0.625-1.3208771,1.2499695-1.9562683,1.8512878c0.0641479,0.1381226,0.0718689,0.1983337,0.1017761,0.2128601
		c1.2679443,0.6156921,2.2492371,1.5690308,3.1387177,2.6368103c0.1867371,0.2241821,0.4223633,0.4082031,0.6391144,0.6067505
		c1.2870178,1.1789246,2.7158813,1.5511169,4.3665161,0.8066711c0.7196808-0.3245544,1.4653473-0.4707336,2.4156036,0.0907898
		c-0.568634,0.2907104-0.9988403,0.6021423-1.4782715,0.7326965c-0.6044464,0.1645508-1.2471161,0.2053223-1.8767853,0.2565918
		c-0.9754486,0.0794373-1.7981567,0.4646301-2.4254456,1.2044983c-1.4343719,1.691803-3.2817993,2.4956055-5.4612122,2.6202698
		c-1.5447083,0.0883484-2.931488,0.5087891-4.1875153,1.5086975c-1.5796051,1.2575073-3.4606323,1.7504883-5.4812469,1.5325317
		c-1.7541199-0.1892395-3.4275208-0.0687256-5.1267395,0.5389709c-2.3071747,0.8251343-4.6286316,0.4967651-6.7510071-0.6858826
		c-1.5813446-0.881134-3.2236328-1.4678345-4.9923553-1.8170776c-2.7363892-0.5403137-4.7292175-2.0632324-6.0398407-4.5827942
		c-0.4348984-0.8360596-1.2277985-1.5979004-2.037384-2.1062012c-2.6470108-1.6619873-4.0009155-4.0369263-4.2833405-7.0861816
		c-0.0802917-0.8667908-0.4115753-1.6066895-0.9363022-2.284729c-1.5280991-1.9745789-2.1255417-4.2263489-1.8625641-6.6880798
		c0.0853119-0.7986755,0.4252548-1.5673523,0.5533905-2.3650513c0.1081238-0.6731567,0.2242737-1.4000549,0.0842667-2.048584
		c-0.6132126-2.8404083-0.2090149-5.4347076,1.6009598-7.7584229c0.2639999-0.3389282,0.5802231-0.6571808,0.7591934-1.0381622
		C112.0194626,246.7050781,112.306427,245.8935394,112.6411057,245.0572205z M116.9043121,276.2473145
		c0.1516113-0.6028442,0.2772751-1.1747131,0.4408569-1.7355652c0.2312698-0.7928772,0.5581284-1.5475464,1.2858734-2.0125732
		c0.7361908-0.470459,1.136116-1.1694641,1.1192627-1.9810181c-0.0269928-1.2995605-0.1268845-2.6112671-0.3587189-3.8882751
		c-0.1666565-0.9179688-0.5298004-1.8204956-0.9332886-2.6689758c-0.3395233-0.7139893-0.9044647-0.798645-1.4457397-0.4224243
		c-1.0515518,0.7308044-2.1057968,1.4586182-3.1775589,2.1591492c-0.6972198,0.4556885-1.1724396,1.0470276-1.3582382,1.8639526
		C111.7494888,270.7591248,113.8255081,274.8919373,116.9043121,276.2473145z M111.7234192,267.1094666
		c0.3751068-1.380127,1.2946243-2.0245972,2.2793121-2.6119385c0.5039825-0.3005981,1.0107346-0.6001587,1.4906235-0.9367676
		c0.8521576-0.5976868,1.4901276-1.3782043,1.8543777-2.3623962c0.7561569-2.0431519,0.5501862-4.1114502,0.2193298-6.1549835
		c-1.5598145,0.3397522-3.0497284,0.6980133-4.5537567,0.9812469c-1.208374,0.2275391-2.058136,0.8670959-2.5950851,1.9539185
		c-1.4045639,2.842926-1.0525665,5.6022949,0.429657,8.2893677
		C111.0088959,266.5597839,111.345726,266.7546082,111.7234192,267.1094666z M120.709671,270.1971741
		c-0.2039566,1.5552368-1.0124512,2.6644592-1.8973999,3.7330933c-0.6857605,0.8280945-1.0030594,1.7609558-0.7704773,2.8360596
		c0.6968613,3.2211914,4.215065,6.0626221,7.5278549,6.0848999c0.0149612-0.0402527,0.04673-0.0827026,0.0418625-0.1203918
		c-0.0172806-0.1336365-0.0323181-0.2705688-0.0744095-0.3975525c-0.4076843-1.2297363-0.3192368-2.4229736,0.101799-3.6483459
		c0.2133865-0.6210632,0.3396759-1.3573914,0.2256165-1.9912415
		C125.3224716,273.6815796,123.5882797,271.5613098,120.709671,270.1971741z M155.7193604,278.6392822
		c-0.3920746-0.2535706-0.6713715-0.4918823-0.9934845-0.6309814c-0.7584534-0.3275146-1.3304901-0.8491516-1.7312317-1.5549316
		c-1.2572937-2.2142944-3.2761688-2.6547241-5.5801392-2.3902283c-1.8697357,0.2146301-3.3391266,1.3618469-5.0026703,2.1523132
		c0.3476868,0.3614502,0.6686554,0.6473083,0.9320679,0.9788818c0.557373,0.7015686,1.2041168,1.367218,1.598587,2.1555786
		c0.7441101,1.4871216,1.9190063,2.1600952,3.5064392,2.2386475c0.5843658,0.0289307,1.1787262,0.053894,1.756485-0.0172424
		C152.3630676,281.305603,154.2103271,280.4277649,155.7193604,278.6392822z M146.765564,282.1539917
		c-1.4360657-0.5225525-2.3306732-1.2918396-2.7694702-2.5336914c-0.4317017-1.2217712-1.3485413-1.9513245-2.5228119-2.3903809
		c-2.2473297-0.84021-4.4707489-0.7228699-6.6758728,0.1790771c-0.2234039,0.0914001-0.4831085,0.0939941-0.611908,0.1172485
		c0.579895,1.432312,1.1483307,2.9674988,1.8193817,4.4564209c0.6597595,1.4638672,1.8466339,2.3480225,3.4427185,2.5482483
		c2.0064087,0.2516785,3.9252014-0.1327515,5.6945648-1.1130981
		C145.6802826,283.1196899,146.1279297,282.6581421,146.765564,282.1539917z M126.7375793,275.6828613
		c-0.0586472,0.8900452-0.0996704,1.6755981-0.1654892,2.4590759c-0.0509949,0.6070251-0.1200943,1.2132568-0.2037048,1.8167114
		c-0.2168884,1.5653992,0.3744736,2.7591248,1.6032333,3.7116394c2.3157349,1.795105,6.250885,2.2590942,8.5152588,0.9550476
		c-0.0948486-0.1516724-0.1616821-0.332428-0.2878571-0.448822c-1.131012-1.0432434-1.4898529-2.411377-1.7453613-3.8614197
		c-0.0965424-0.5479736-0.3801727-1.137207-0.7531433-1.5495911
		C131.8568878,276.7272034,129.4528198,275.898468,126.7375793,275.6828613z"/>
	<path style="fill:#FFFFFF;" d="M151.7207336,215.4581146c0.3062744,0.2922974,0.5414581,0.5634766,0.8215942,0.7750854
		c0.75177,0.5679016,1.2497253,1.2907104,1.4750214,2.2078857c0.3710175,1.5103912,1.3357391,2.4015198,2.8374939,2.7803955
		c0.603714,0.152298,1.3127747,0.2060089,1.6689606,1.0747681c-0.4563141,0.0451202-0.8404846,0.0747223-1.2222595,0.1231689
		c-0.4030914,0.0511169-0.8511658,0.0254059-1.1973877,0.1981354c-1.3737946,0.6854401-2.6936493,1.5148773-4.2545319,1.6945801
		c-0.8699951,0.100174-1.7589264,0.1066895-2.6348419,0.0638733c-0.8362732-0.0408783-1.4523468,0.2235107-2.0291901,0.8418427
		c-1.415802,1.5176544-3.1765442,2.4534912-5.2419434,2.7288208c-1.0937958,0.1457977-1.9391327,0.5734406-2.6018524,1.495224
		c-1.1581421,1.6109009-2.5869598,2.8742676-4.6052246,3.3650208c-1.1971893,0.2910767-2.0863953,0.996109-2.4718475,2.2688446
		c-0.2281952,0.7534332-0.5847168,0.8421326-1.4214478,0.5347137c0.3364105-0.6510773,0.6707153-1.2980804,1.0362549-2.0055084
		c-0.4201202-0.0910645-0.746109-0.1599426-1.0712738-0.2325439c-0.9186401-0.2050171-1.7388916-0.5527802-2.4150543-1.2679749
		c-0.9837799-1.0405884-2.213768-1.1937561-3.5640869-0.8209381c-0.6991119,0.1930389-1.4131622,0.4702301-2.3135834,0.151535
		c0.2749176-0.2433929,0.4483337-0.4303741,0.653038-0.5721893c0.7933044-0.5496521,1.4443054-1.1379547,1.9459076-2.0552979
		c1.1840973-2.1655121,3.004158-3.723526,5.4418106-4.400238c1.0065765-0.2794342,1.7747803-0.7688446,2.3648376-1.6607513
		c1.334259-2.0168915,3.2511749-3.2220154,5.6000977-3.7544098c0.3962708-0.0898285,0.7915192-0.1841888,1.1867828-0.2783966
		c0.7630157-0.1818237,1.359024-0.5244446,1.9910126-1.0855103c2.1437073-1.903183,4.6715546-3.0078888,7.6326752-2.6431732
		c0.7616425,0.0937805,1.4176941-0.0196381,2.078064-0.382843c1.5086823-0.8296814,3.0475006-1.6201782,4.797226-1.7662201
		c0.7320862-0.0611115,1.4837341,0.03685,2.217804,0.1305389c0.1756134,0.0224152,0.3165131,0.3169098,0.4733734,0.4862671
		c-0.1733093,0.1322021-0.3388214,0.3655548-0.5212555,0.3796539c-0.9454346,0.0730743-1.8980713,0.0557556-2.8427582,0.1348877
		C154.1534119,214.0830536,152.9578552,214.7024841,151.7207336,215.4581146z M146.8312683,224.1000977
		c-0.2145844-0.1671753-0.357193-0.3178253-0.5312042-0.4073944c-1.0559845-0.5434875-1.8173218-1.3425751-2.4219055-2.3796082
		c-0.6324463-1.0848083-1.7233276-1.6155243-2.9646912-1.6349335c-3.1187744-0.0487366-5.4979553,1.3632965-7.284256,3.8605042
		c-0.0733032,0.102478-0.1091309,0.2317963-0.2039948,0.4397125c1.5581818,0.0919952,2.5834808,0.9732361,3.5171356,2.0298309
		c0.6561432,0.7425079,1.5161438,1.1464691,2.4991302,1.2229309c2.462738,0.1915588,4.6455994-0.510849,6.5076141-2.1454468
		C146.2661438,224.807373,146.5177002,224.4544373,146.8312683,224.1000977z M125.5428696,229.9610138
		c0.1966476,0.0713196,0.2768402,0.120285,0.3607712,0.1278839c1.3508759,0.1219025,2.4822845,0.6611633,3.5095978,1.5717468
		c0.9816437,0.8700867,2.2335815,1.0700226,3.5139008,0.8391571c2.3822327-0.4295044,4.2464294-1.7076111,5.7034149-3.6103973
		c0.1571045-0.2051544,0.2657166-0.4474335,0.4646606-0.7889404c-1.620697-0.1676788-2.5950317-1.1482391-3.5598602-2.1950378
		c-0.8056183-0.8740997-1.9106598-1.1172028-3.0546722-0.9880524
		C129.2584839,225.2811432,127.1022797,227.1390991,125.5428696,229.9610138z M142.0323334,218.9348145
		c1.6212158,0.5115204,2.6692352,1.4076843,3.3123169,2.8264008c0.1936798,0.4272766,0.6852112,0.8088226,1.131073,1.0119171
		c0.7094421,0.3230743,1.48172,0.5528107,2.250946,0.6916046c2.3572845,0.4253998,4.4062653-0.6603851,6.5920563-1.4042511
		c-0.1739044-0.2729492-0.2781525-0.5409241-0.4678192-0.716629c-0.9533844-0.8832245-1.5011749-2.0008087-2.0154724-3.1708221
		c-0.5233459-1.1906586-1.5383606-1.8986664-2.79776-2.1529388c-2.6236267-0.5297241-4.9653168,0.1645966-7.0385742,1.8054962
		C142.657608,218.0958862,142.4139404,218.4898682,142.0323334,218.9348145z"/>
	<path style="fill:#FFFFFF;" d="M165.1817017,94.3973923c-0.0129852-0.255661-0.0346527-0.4310379-0.0288849-0.6055069
		c0.1634521-4.9516983,0.2856445-9.9053421,0.5153351-14.8539886c0.1035919-2.2318573,0.3282776-4.4681854,0.6680756-6.6763
		c0.3887939-2.5265427,2.7564392-4.341217,5.4024963-4.3429947c2.6473083-0.0017776,5.0344391,1.7948685,5.412262,4.3277588
		c0.3962555,2.6564636,0.6711578,5.3420639,0.8026276,8.024559c0.2203522,4.4957047,0.2850037,8.9990311,0.4143982,13.499176
		c0.0044861,0.156044,0.0005646,0.3123322,0.0005646,0.5510788c-0.7653961,0-1.5013275,0.0247269-2.2320862-0.0256577
		c-0.114563-0.0078964-0.2872925-0.3535309-0.2952576-0.5486298c-0.109787-2.6899185-0.2234955-5.3802414-0.2798157-8.07164
		c-0.0695496-3.3245544-0.046524-6.6514435-0.1496124-9.9746552c-0.0325012-1.0473251-0.2350464-2.1196823-0.5495758-3.1209106
		c-0.4861603-1.547554-1.6100311-2.2669373-3.172348-2.2545624c-1.5164032,0.0120087-2.6160736,0.7420959-3.0611877,2.2978439
		c-0.3195953,1.1170425-0.4964905,2.3040466-0.5372009,3.466835c-0.1828156,5.2221451-0.2918854,10.4468689-0.4340973,15.6704788
		c-0.0184631,0.6780624-0.0578308,1.3568344-0.1268921,2.0312424c-0.0153503,0.1499023-0.1819763,0.3879089-0.3051147,0.4058762
		C166.562912,94.2940369,165.8921814,94.3340378,165.1817017,94.3973923z"/>
	<path style="fill:#FFFFFF;" d="M174.8488922,94.1188202c-1.5625305,0-3.0248413,0.0169983-4.4852142-0.0282974
		c-0.1347504-0.0041809-0.3649139-0.4031677-0.3689728-0.6222076c-0.0503235-2.7115631-0.0948792-5.423851-0.085083-8.1357498
		c0.0125275-3.4584885,0.0669098-6.9169388,0.1252136-10.3750381c0.0117493-0.6961136,0.0505524-1.4066849,0.2033386-2.0819626
		c0.2237091-0.9887085,0.8221741-1.3596802,1.9051361-1.3390961c0.9421692,0.0179062,1.5796814,0.4556732,1.7440643,1.3837585
		c0.1605988,0.9067612,0.2018127,1.8386841,0.2433472,2.7619095c0.247757,5.509201,0.4832001,11.0189667,0.7144928,16.5288925
		C174.8723907,92.8583755,174.8488922,93.5078506,174.8488922,94.1188202z"/>
</g>
<text transform="matrix(1 0 0 1 40.2391357 346.9100342)" style="display:none;fill:#FFFFFF;enable-background:new    ; font-family:'Cassandra'; font-size:58.6281624px;">Балтика</text>
<g style="enable-background:new    ;">
	<path style="fill:#FFFFFF;" d="M104.9648438,321.4316406c0.2866211,0.0771484,0.7587891,0.2109375,1.4169922,0.4013672
		c0.6586914,0.1904297,1.402832,0.453125,2.2329102,0.7871094c0.8305664,0.3339844,1.6987305,0.7490234,2.6054688,1.2451172
		c0.9057617,0.4970703,1.7412109,1.078125,2.5043945,1.7460938c0.7631836,0.6689453,1.4072266,1.4316406,1.9326172,2.2900391
		c0.5244141,0.859375,0.8251953,1.8232422,0.9018555,2.8916016c0.3242188-0.0761719,0.6914063-0.1806641,1.1020508-0.3144531
		c0.4101563-0.1337891,0.8061523-0.2626953,1.1879883-0.3867188c0.3813477-0.1240234,0.7299805-0.2333984,1.0449219-0.3291016
		s0.5483398-0.1435547,0.7011719-0.1435547s0.262207,0.0429688,0.3291016,0.1289063s0.0810547,0.1767578,0.0429688,0.2724609
		c-0.019043,0.1523438-0.3769531,0.3388672-1.0732422,0.5576172c-0.6967773,0.2197266-1.7416992,0.5488281-3.1347656,0.9882813
		c0.0380859,0.4003906,0.0717773,0.9492188,0.1000977,1.6455078c0.0288086,0.6972656-0.0332031,1.3886719-0.1860352,2.0751953
		c-0.4199219,1.7373047-1.1162109,3.2978516-2.0898438,4.6806641c-0.9731445,1.3837891-2.309082,2.6103516-4.0078125,3.6787109
		c-1.7368164,1.1074219-3.8359375,2.0615234-6.2978516,2.8632813c-1.2592773,0.4384766-2.519043,0.7480469-3.7788086,0.9296875
		c-1.2592773,0.1816406-2.5478516,0.2529297-3.8647461,0.2148438c-1.8891602-0.1337891-3.2202148-0.5107422-3.9931641-1.1308594
		s-1.0161133-1.4736328-0.7299805-2.5615234c0.3242188-1.0117188,1.0205078-1.9990234,2.0898438-2.9628906
		c1.0683594-0.9638672,2.5571289-1.9042969,4.4658203-2.8203125c0.9160156-0.4580078,1.8271484-0.9111328,2.7338867-1.359375
		c0.90625-0.4482422,1.8891602-0.9023438,2.9482422-1.3603516c1.0595703-0.4580078,2.2280273-0.9394531,3.5068359-1.4453125
		c1.2783203-0.5058594,2.7290039-1.0449219,4.3515625-1.6171875c0-0.8974609-0.171875-1.8369141-0.5151367-2.8203125
		c-0.34375-0.9824219-0.840332-1.921875-1.4887695-2.8193359c-0.6489258-0.8964844-1.4365234-1.7275391-2.3618164-2.4902344
		c-0.9257813-0.7636719-1.9707031-1.3837891-3.1347656-1.8613281l-2.7480469-0.7724609
		c-0.6108398,1.2978516-1.2695313,2.5859375-1.9750977,3.8642578c-1.6606445,2.9580078-3.3496094,5.6210938-5.0673828,7.9873047
		c-1.7172852,2.3662109-3.5019531,4.4658203-5.3530273,6.2978516c-2.3857422,2.5576172-5.9257813,5.2480469-10.6206055,8.0722656
		c-4.6567383,2.8056641-10.144043,4.3320313-16.4604492,4.5810547c-5.706543-0.0771484-10.2583008-1.3076172-13.6552734-3.6933594
		c-3.3779297-2.3662109-5.1147461-5.5439453-5.2099609-9.5322266c0-4.1992188,1.7363281-7.8154297,5.2099609-10.8505859
		c3.4926758-3.0527344,8.6928711-4.65625,15.6015625-4.8085938c5,0.1142578,8.9414063,1.0683594,11.8232422,2.8623047
		c2.9199219,1.7753906,4.4086914,3.7695313,4.4658203,5.9833984c-0.0195313,0.8017578-0.1958008,1.4980469-0.5297852,2.0898438
		s-0.7207031,1.1064453-1.1591797,1.5458984h5.7250977c0.152832,0,0.2719727,0.0136719,0.3579102,0.0429688
		c0.0859375,0.0283203,0.1289063,0.1289063,0.1289063,0.2998047c0,0.171875-0.0668945,0.2773438-0.2001953,0.3154297
		c-0.1337891,0.0380859-0.2866211,0.0576172-0.4580078,0.0576172h-6.4985352
		c-0.7255859,0.5722656-1.9467773,1.1542969-3.6640625,1.7460938c-0.8588867,0.2675781-1.8564453,0.4765625-2.9916992,0.6298828
		c-1.1357422,0.1523438-2.4379883,0.2382813-3.9077148,0.2568359c-3.0727539-0.0566406-5.5063477-0.4003906-7.2998047-1.0302734
		c-1.8134766-0.6298828-2.7387695-1.25-2.7768555-1.8603516c0-0.3056641,0.3339844-0.4580078,1.0019531-0.4580078h19.3520508
		c0.6870117-0.5537109,1.2260742-1.1123047,1.6171875-1.6748047s0.5869141-1.2167969,0.5869141-1.9609375
		c-0.0766602-1.7363281-1.5366211-3.2353516-4.3798828-4.4951172c-2.7866211-1.2783203-6.4223633-1.9462891-10.9067383-2.0039063
		c-5.5732422-0.0185547-10.2202148,0.859375-13.9414063,2.6337891c-3.6455078,1.7373047-5.5444336,4.4570313-5.6967773,8.1591797
		c0.2475586,4.2939453,2.6235352,7.2421875,7.1279297,8.8457031c4.4848633,1.6035156,9.4755859,2.3759766,14.972168,2.3183594
		c4.1982422-0.0380859,7.9296875-0.6152344,11.1928711-1.7314453c3.2636719-1.1162109,5.9638672-2.7431641,8.1015625-4.8808594
		c3.8359375-4.0654297,7.690918-9.5898438,11.5654297-16.5751953c0.3432617-0.6103516,0.6772461-1.2167969,1.0019531-1.8173828
		c0.3242188-0.6015625,0.6391602-1.1982422,0.9448242-1.7900391l-2.2905273-0.6582031
		c-0.190918-0.0566406-0.3149414-0.1044922-0.3720703-0.1425781s-0.0283203-0.1337891,0.0859375-0.2871094
		c0.0952148-0.2089844,0.1904297-0.3330078,0.2861328-0.3720703c0.0952148-0.0380859,0.2480469-0.0380859,0.4580078,0
		l2.2617188,0.6015625c1.2783203-2.5576172,2.3803711-4.9472656,3.3066406-7.1708984
		c0.925293-2.2236328,1.7319336-4.375,2.4189453-6.4560547c-1.0878906-0.4189453-2.2475586-0.7246094-3.4785156-0.9160156
		c-1.230957-0.1904297-2.4760742-0.28125-3.7358398-0.2714844c-1.2592773,0.0097656-2.5,0.1142578-3.7211914,0.3144531
		c-1.2216797,0.2011719-2.371582,0.4775391-3.449707,0.8300781c-1.0786133,0.3535156-2.0610352,0.7783203-2.9487305,1.2744141
		c-0.887207,0.4960938-1.6171875,1.0400391-2.1899414,1.6318359c-2.4047852,2.5-3.5688477,5.2480469-3.4921875,8.2441406
		c0.1713867,3.1308594,0.8300781,5.7353516,1.9750977,7.8154297c1.1640625,2.0800781,1.8320313,3.3017578,2.0039063,3.6640625
		c0,0.2480469-0.0957031,0.3720703-0.2861328,0.3720703c-0.0957031,0.0957031-0.3916016-0.2382813-0.8876953-1.0019531
		c-0.496582-0.7441406-1.4125977-2.4042969-2.7480469-4.9804688c-0.6298828-1.5273438-1.1645508-2.9580078-1.6030273-4.2939453
		c-0.4394531-1.3359375-0.668457-2.7382813-0.6870117-4.2089844c-0.0766602-3.1484375,1.1733398-5.6484375,3.75-7.5
		c1.8891602-1.3359375,3.8071289-2.2470703,5.7539063-2.7333984c1.9467773-0.4873047,3.9121094-0.7021484,5.8974609-0.6445313
		c1.984375,0.0576172,3.9790039,0.2958984,5.9829102,0.7158203s4.012207,0.8544922,6.0258789,1.3027344
		c2.0131836,0.4482422,4.0219727,0.8300781,6.0258789,1.1445313c2.0039063,0.3154297,3.9838867,0.3964844,5.9404297,0.2431641
		c1.9560547-0.1523438,3.8930664-0.6289063,5.8110352-1.4306641s3.7929688-2.0800781,5.6254883-3.8359375
		c0.1713867-0.1337891,0.2954102-0.1240234,0.3720703,0.0283203c-0.3823242,1.2021484-1.0117188,2.3525391-1.8896484,3.4492188
		c-0.8779297,1.0976563-1.9462891,2.1142578-3.2060547,3.0488281c-0.5917969,0.3632813-1.2358398,0.6923828-1.9321289,0.9882813
		c-0.6972656,0.2958984-1.4702148,0.5195313-2.3188477,0.671875c-0.8496094,0.1533203-1.7993164,0.2197266-2.8486328,0.2011719
		c-1.0498047-0.0195313-2.2236328-0.1669922-3.5209961-0.4443359c-1.2983398-0.2763672-2.7387695-0.6962891-4.3227539-1.2587891
		c-1.5844727-0.5634766-3.3491211-1.3027344-5.2958984-2.21875c-0.5537109,2.5380859-1.1787109,4.9472656-1.875,7.2275391
		c-0.6972656,2.28125-1.5317383,4.5195313-2.5048828,6.7138672L104.9648438,321.4316406z M111.8354492,337.234375
		c0.0761719-0.34375,0.1430664-0.7060547,0.2001953-1.0878906c0.0576172-0.3818359,0.0957031-0.7490234,0.1147461-1.1025391
		c0.0185547-0.3525391,0.0043945-0.6728516-0.0429688-0.9589844c-0.0478516-0.2861328-0.1386719-0.5146484-0.2719727-0.6865234
		c-2.3857422,0.8779297-4.5424805,1.7177734-6.4697266,2.5185547c-1.9277344,0.8017578-3.6455078,1.5849609-5.152832,2.3476563
		c-2.9584961,1.4882813-4.6762695,3.0537109-5.152832,4.6953125c-0.1147461,0.5537109-0.0859375,1.0498047,0.0859375,1.4882813
		c0.171875,0.4394531,0.4624023,0.8115234,0.8730469,1.1162109c0.4101563,0.3056641,0.9111328,0.5488281,1.5029297,0.7304688
		c0.5913086,0.1816406,1.2495117,0.3007813,1.9750977,0.3574219c1.4316406,0.0390625,2.7915039-0.1572266,4.0795898-0.5869141
		c1.2880859-0.4287109,2.5141602-1.1113281,3.6787109-2.046875c1.2021484-0.9160156,2.1704102-1.9365234,2.9052734-3.0625
		C110.8950195,339.8300781,111.4536133,338.5898438,111.8354492,337.234375z"/>
	<path style="fill:#FFFFFF;" d="M146.7890625,325.46875c-0.5917969,1.3359375-1.3696289,3.0292969-2.3334961,5.0810547
		s-1.9321289,4.1845703-2.9052734,6.3984375c-0.9736328,2.2138672-1.8037109,4.1503906-2.4907227,5.8105469
		c-0.6870117,1.6611328-1.0307617,2.7773438-1.0307617,3.3496094c0,0.1533203,0.0239258,0.2724609,0.0717773,0.3583984
		c0.0473633,0.0859375,0.1474609,0.1289063,0.3007813,0.1289063c0.2475586-0.0380859,0.7104492-0.3251953,1.3881836-0.859375
		c0.6772461-0.5341797,1.3027344-1.0878906,1.875-1.6601563c1.7363281-1.8125,2.8100586-3.125,3.2207031-3.9365234
		c0.4101563-0.8105469,0.7109375-1.2070313,0.9018555-1.1875c0.0952148,0,0.1762695,0.0185547,0.2431641,0.0566406
		c0.0668945,0.0390625,0.1000977,0.1054688,0.1000977,0.2011719c-0.0571289,0.3427734-0.5292969,1.1064453-1.4169922,2.2900391
		c-0.887207,1.1835938-1.8178711,2.2714844-2.7910156,3.2626953c-0.5917969,0.5917969-1.2739258,1.1503906-2.046875,1.6748047
		c-0.7729492,0.5253906-1.4648438,0.8164063-2.0756836,0.8730469c-0.6108398-0.0185547-1.1591797-0.2910156-1.6459961-0.8154297
		c-0.4863281-0.5244141-0.7397461-1.3496094-0.7583008-2.4765625c0-0.7822266,0.1762695-1.6933594,0.5292969-2.7333984
		s0.8251953-2.15625,1.4169922-3.3496094c0.5913086-1.1923828,1.2070313-2.4619141,1.8466797-3.8076172
		c0.6391602-1.3447266,1.2739258-2.7050781,1.9038086-4.0791016c-0.706543,0.9355469-1.4223633,1.9130859-2.1469727,2.9345703
		c-0.7255859,1.0205078-1.4887695,2.0654297-2.2905273,3.1347656c-0.8012695,1.0683594-1.6508789,2.1513672-2.5478516,3.2490234
		s-1.8510742,2.1894531-2.8623047,3.2773438c-1.1645508,1.2216797-2.3046875,2.2714844-3.4208984,3.1494141
		c-1.1166992,0.8779297-2.2094727,1.3457031-3.277832,1.4023438c-0.9165039-0.0566406-1.5605469-0.4677734-1.9326172-1.2304688
		c-0.3720703-0.7636719-0.5488281-1.6699219-0.5292969-2.7197266c0.1333008-3.7402344,1.9321289-7.6240234,5.3959961-11.6513672
		c3.4638672-4.0263672,7.8388672-6.2021484,13.1254883-6.5273438c0.4580078,0,0.90625,0.0390625,1.3457031,0.1152344
		c0.4384766,0.0761719,0.8393555,0.1708984,1.2021484,0.2861328H146.7890625z M142.4946289,326.0693359
		c-0.1333008,0-0.2958984-0.0283203-0.4863281-0.0859375c-0.190918-0.0566406-0.4580078-0.0859375-0.8017578-0.0859375
		c-4.5800781,0.5351563-8.4404297,3.25-11.5795898,8.1445313c-3.1396484,4.8955078-4.7763672,8.7841797-4.909668,11.6660156
		c0,0.2675781,0.0332031,0.4716797,0.1005859,0.6152344c0.0664063,0.1435547,0.1953125,0.2148438,0.3862305,0.2148438
		c0.6484375-0.0761719,1.4599609-0.5341797,2.4331055-1.3740234c0.9736328-0.8398438,1.7651367-1.5742188,2.3764648-2.2041016
		c1.9462891-1.9472656,4.140625-4.5234375,6.5839844-7.7294922
		C139.0405273,332.0244141,141.0063477,328.9707031,142.4946289,326.0693359z"/>
	<path style="fill:#FFFFFF;" d="M150.4248047,344.1337891c-0.152832,0.3623047-0.2197266,0.6865234-0.2001953,0.9726563
		c0.0185547,0.2861328,0.1044922,0.515625,0.2573242,0.6875c0,0.1337891,0.0908203,0.2626953,0.2719727,0.3857422
		c0.1811523,0.125,0.4155273,0.1865234,0.7016602,0.1865234c0.5151367-0.0185547,1.097168-0.3193359,1.7460938-0.9013672
		c0.6484375-0.5820313,1.3212891-1.3125,2.0180664-2.1904297s1.402832-1.8369141,2.1186523-2.8769531
		s1.3881836-2.0371094,2.0180664-2.9912109c0.3242188-0.4960938,0.7773438-1.1542969,1.3598633-1.9755859
		c0.5820313-0.8203125,1.230957-1.703125,1.9467773-2.6474609c0.715332-0.9453125,1.4692383-1.8896484,2.2612305-2.8349609
		c0.7919922-0.9443359,1.574707-1.7929688,2.3476563-2.5478516c0.7729492-0.7529297,1.5029297-1.3496094,2.1899414-1.7890625
		c0.6870117-0.4384766,1.2783203-0.6103516,1.7749023-0.5146484c0.7250977,0.0380859,1.2880859,0.3388672,1.6889648,0.9013672
		c0.4003906,0.5634766,0.6005859,1.3408203,0.6005859,2.3330078c0,0.859375-0.171875,1.6416016-0.5146484,2.3476563
		c-0.152832,0.3623047-0.3720703,0.796875-0.6586914,1.3027344c-0.2861328,0.5058594-0.6201172,1.0927734-1.0019531,1.7607422
		c-1.0117188,2.2138672-1.8847656,4.0498047-2.6191406,5.5097656c-0.7348633,1.4609375-1.3408203,2.6484375-1.8178711,3.5644531
		s-0.8256836,1.6083984-1.0449219,2.0751953c-0.2197266,0.4677734-0.3291016,0.7978516-0.3291016,0.9882813
		s0.0664063,0.3623047,0.2001953,0.5146484c0.1333008,0.1533203,0.3242188,0.2294922,0.5727539,0.2294922
		c0.4389648-0.0185547,0.9160156-0.2294922,1.4311523-0.6298828c0.2670898-0.1904297,0.4960938-0.3671875,0.6870117-0.5292969
		s0.3623047-0.3193359,0.515625-0.4726563c0.4960938-0.5341797,0.9682617-1.0634766,1.4169922-1.5888672
		c0.4482422-0.5244141,0.8730469-1.0546875,1.2739258-1.5888672c0.8203125-1.0878906,1.3452148-1.6699219,1.5742188-1.7460938
		c0.0947266,0,0.1523438,0.0195313,0.171875,0.0576172c0.0185547,0.0380859,0.0283203,0.0957031,0.0283203,0.1708984
		c-0.0761719,0.34375-0.6010742,1.1171875-1.5742188,2.3193359c-0.4770508,0.5722656-0.9257813,1.0927734-1.3452148,1.5605469
		c-0.4204102,0.4677734-0.8208008,0.8916016-1.2026367,1.2734375c-0.6489258,0.6875-1.2167969,1.1738281-1.703125,1.4599609
		c-0.4868164,0.2861328-1.0161133,0.4296875-1.5888672,0.4296875c-0.9160156-0.0195313-1.6416016-0.4013672-2.1757813-1.1455078
		c-0.496582-0.7626953-0.7441406-1.5927734-0.7441406-2.4902344c-0.0571289-0.6875,0.2290039-1.6982422,0.8588867-3.0341797
		c0.3242188-0.6679688,0.8056641-1.6367188,1.4453125-2.90625c0.6396484-1.2685547,1.4550781-2.8486328,2.4477539-4.7373047
		c0.4194336-0.8203125,0.8203125-1.5986328,1.2026367-2.3330078c0.3813477-0.7353516,0.7441406-1.4365234,1.0874023-2.1044922
		c0.7060547-1.3164063,1.078125-2.1367188,1.1166992-2.4619141c0-0.2099609-0.1430664-0.3144531-0.4296875-0.3144531
		c-0.5151367,0.0380859-1.1450195,0.3818359-1.8891602,1.0302734s-1.574707,1.5126953-2.4907227,2.5908203
		s-1.9135742,2.3378906-2.9912109,3.7783203c-1.0786133,1.4414063-2.199707,2.9726563-3.3637695,4.5947266
		c-0.5537109,0.7636719-1.1264648,1.5986328-1.7177734,2.5048828c-0.5917969,0.9072266-1.230957,1.7988281-1.9179688,2.6767578
		s-1.421875,1.6796875-2.2041016,2.4042969c-0.7827148,0.7255859-1.6416016,1.2880859-2.5766602,1.6894531
		c-1.3168945-0.0195313-2.3569336-0.3583984-3.1201172-1.0166016c-0.7636719-0.6582031-1.1835938-1.5117188-1.2597656-2.5615234
		c-0.190918-1.0693359-0.1000977-1.9423828,0.2719727-2.6201172c0.3720703-0.6767578,0.8540039-1.1201172,1.4458008-1.3310547
		c0.4580078-0.1142578,0.9160156-0.0283203,1.3740234,0.2578125s0.7729492,0.6875,0.9448242,1.2021484
		c0.0952148,0.6494141,0.0756836,1.1982422-0.0576172,1.6464844S150.8447266,343.5996094,150.4248047,344.1337891z"/>
	<path style="fill:#FFFFFF;" d="M185.9794922,325.125c0.7626953,0,1.4306641,0.3291016,2.0039063,0.9873047
		c0.5722656,0.6591797,0.8769531,1.5800781,0.9160156,2.7626953c0,0.5537109-0.1152344,1.1503906-0.34375,1.7890625
		c-0.2294922,0.6396484-0.5830078,1.4033203-1.0595703,2.2900391c-0.4775391,0.8876953-1.0634766,2.0039063-1.7607422,3.3496094
		c-0.6962891,1.3457031-1.5126953,2.9912109-2.4472656,4.9384766c0.9736328-1.3554688,1.8125-2.5234375,2.5195313-3.5068359
		c0.7050781-0.9824219,1.3876953-1.9042969,2.046875-2.7626953c0.6582031-0.8583984,1.4169922-1.7460938,2.2753906-2.6621094
		s1.9179688-1.984375,3.1777344-3.2060547c0.8964844-0.9355469,1.8847656-1.8466797,2.9628906-2.734375
		s2.1044922-1.359375,3.0771484-1.4169922c0.8974609,0.0380859,1.5361328,0.3916016,1.9179688,1.0595703
		s0.5625,1.4121094,0.5439453,2.2324219c0,0.6113281-0.1191406,1.2314453-0.3574219,1.8613281
		c-0.2392578,0.6298828-0.5917969,1.3740234-1.0595703,2.2324219c-0.4677734,0.859375-1.0546875,1.9951172-1.7607422,3.4072266
		s-1.5263672,3.1865234-2.4619141,5.3242188c1.6220703-2.2900391,3.1679688-4.3369141,4.6376953-6.140625
		s3.0722656-3.5644531,4.8095703-5.28125c0.8964844-0.9355469,1.9892578-1.9130859,3.2773438-2.9345703
		c1.2890625-1.0205078,2.4384766-1.5693359,3.4501953-1.6464844c0.8203125,0.0390625,1.4257813,0.3916016,1.8173828,1.0595703
		s0.5869141,1.4316406,0.5869141,2.2900391c0.0761719,0.5341797-0.0810547,1.2548828-0.4716797,2.1611328
		c-0.3916016,0.9072266-1.5029297,3.1162109-3.3359375,6.6279297c-0.9541016,1.8886719-1.8603516,3.7167969-2.71875,5.4814453
		c-0.859375,1.765625-1.3173828,2.8681641-1.375,3.3066406c0,0.2861328,0.0722656,0.4863281,0.2148438,0.6015625
		c0.1435547,0.1142578,0.3291016,0.1708984,0.5585938,0.1708984c0.3818359-0.0185547,0.8154297-0.2138672,1.3027344-0.5869141
		c0.4863281-0.3720703,0.9677734-0.8056641,1.4453125-1.3017578c1.4121094-1.4697266,2.390625-2.6142578,2.9345703-3.4355469
		c0.5439453-0.8203125,0.9306641-1.2402344,1.1591797-1.2597656c0.1142578,0,0.1904297,0.0292969,0.2294922,0.0859375
		c0.0371094,0.0576172,0.0566406,0.1142578,0.0566406,0.171875c-0.0957031,0.34375-0.6347656,1.1123047-1.6171875,2.3046875
		c-0.9833984,1.1923828-1.8466797,2.1611328-2.5908203,2.9052734c-0.6875,0.6494141-1.2880859,1.1025391-1.8037109,1.3603516
		c-0.5146484,0.2568359-0.9921875,0.3955078-1.4306641,0.4150391c-0.859375-0.0390625-1.5654297-0.3867188-2.1191406-1.0449219
		c-0.5537109-0.6591797-0.8398438-1.484375-0.8583984-2.4765625c-0.0576172-0.6103516,0.1523438-1.4931641,0.6298828-2.6484375
		c0.4765625-1.1542969,1.5166016-3.2490234,3.1201172-6.2832031c1.3740234-2.7666016,2.4287109-4.8759766,3.1630859-6.3261719
		s1.1025391-2.2910156,1.1025391-2.5195313c0-0.0957031-0.0390625-0.1669922-0.1142578-0.2148438
		c-0.0771484-0.046875-0.1914063-0.0712891-0.34375-0.0712891c-0.4199219,0.0195313-1.2021484,0.453125-2.3476563,1.3027344
		c-1.1455078,0.8486328-2.4140625,1.9609375-3.8076172,3.3349609c-1.8701172,1.8320313-3.9033203,4.1464844-6.0976563,6.9414063
		c-2.1943359,2.796875-4.2275391,5.9599609-6.0976563,9.4902344h-4.1503906
		c0.6103516-1.3925781,1.4550781-3.2011719,2.5332031-5.4248047c1.078125-2.2226563,2.1855469-4.4804688,3.3212891-6.7705078
		c1.1347656-2.2900391,2.1035156-4.2460938,2.9052734-5.8681641s1.2207031-2.5097656,1.2597656-2.6621094
		c0-0.171875-0.0390625-0.2910156-0.1142578-0.3583984c-0.0771484-0.0664063-0.2197266-0.0996094-0.4296875-0.0996094
		c-0.34375,0.0380859-1.0351563,0.4433594-2.0751953,1.2158203c-1.0410156,0.7734375-2.1425781,1.7324219-3.3066406,2.8769531
		c-1.8896484,1.8515625-3.9560547,4.1943359-6.1982422,7.0283203s-4.4130859,6.1884766-6.5126953,10.0625h-3.8925781
		c1.7177734-3.7783203,3.171875-6.9375,4.3652344-9.4755859c1.1923828-2.5380859,2.1708984-4.5800781,2.9345703-6.1259766
		c0.7626953-1.5458984,1.3212891-2.6914063,1.6748047-3.4355469c0.3525391-0.7441406,0.5292969-1.1923828,0.5292969-1.3457031
		c0-0.2089844-0.0478516-0.3759766-0.1435547-0.5009766c-0.0957031-0.1230469-0.2382813-0.1855469-0.4287109-0.1855469
		c-0.4394531-0.0380859-1.1025391,0.2050781-1.9902344,0.7294922c-0.8867188,0.5253906-2.0654297,1.5126953-3.5351563,2.9628906
		c-0.9921875,1.0117188-1.6464844,1.7373047-1.9609375,2.1757813c-0.3144531,0.4394531-0.5771484,0.6494141-0.7871094,0.6298828
		c-0.0576172,0-0.1103516-0.0234375-0.1572266-0.0712891c-0.0478516-0.0478516-0.0722656-0.1191406-0.0722656-0.2148438
		c0.171875-0.6103516,1.2402344-1.8554688,3.2070313-3.7353516C182.4765625,326.4375,184.2998047,325.3730469,185.9794922,325.125z"
		/>
	<path style="fill:#FFFFFF;" d="M225.9707031,325.0107422c0.9355469,0.0380859,1.6552734,0.4248047,2.1611328,1.1591797
		s0.7587891,1.5605469,0.7587891,2.4765625c0.0576172,0.6865234-0.2285156,1.6982422-0.8583984,3.0341797
		s-1.9277344,3.8837891-3.8935547,7.6435547c-0.8398438,1.6416016-1.6074219,3.1201172-2.3046875,4.4365234
		c-0.6962891,1.3173828-1.0634766,2.1376953-1.1015625,2.4619141c0,0.1337891,0.0380859,0.2197266,0.1142578,0.2578125
		c0.0761719,0.0390625,0.1816406,0.0576172,0.3154297,0.0576172c0.6669922-0.0957031,1.640625-0.6777344,2.9199219-1.7460938
		c1.2783203-1.0683594,2.3369141-2.0136719,3.1767578-2.8339844c1.9082031-1.8701172,3.984375-4.2324219,6.2265625-7.0859375
		c2.2421875-2.8525391,4.2890625-6.0253906,6.140625-9.5185547h3.8076172
		c-1.8710938,3.9892578-3.4355469,7.2763672-4.6953125,9.8623047c-1.2587891,2.5869141-2.2470703,4.6191406-2.9628906,6.0976563
		c-0.7158203,1.4794922-1.2304688,2.5625-1.5458984,3.2490234c-0.3144531,0.6875-0.453125,1.1650391-0.4150391,1.4316406
		c0,0.1914063,0.0527344,0.3388672,0.1582031,0.4433594c0.1044922,0.1054688,0.2617188,0.1582031,0.4716797,0.1582031
		c0.7060547-0.0380859,1.4121094-0.3486328,2.1181641-0.9306641s1.3359375-1.1494141,1.8896484-1.703125
		c1.2783203-1.3554688,2.1708984-2.4238281,2.6767578-3.2070313c0.5058594-0.7822266,0.8632813-1.1826172,1.0732422-1.2021484
		c0.1152344,0,0.1904297,0.0195313,0.2294922,0.0576172c0.0380859,0.0380859,0.0566406,0.0957031,0.0566406,0.171875
		c-0.0380859,0.2480469-0.4287109,0.8632813-1.1728516,1.8466797c-0.7451172,0.9824219-1.5654297,1.9316406-2.4619141,2.8476563
		c-0.4970703,0.5351563-1.1787109,1.1220703-2.046875,1.7607422c-0.8691406,0.6396484-1.8085938,0.9970703-2.8203125,1.0732422
		c-0.9355469-0.0185547-1.6455078-0.2529297-2.1328125-0.7011719c-0.4863281-0.4482422-0.7294922-1.1591797-0.7294922-2.1328125
		c-0.0390625-0.6679688,0.046875-1.3544922,0.2578125-2.0605469c0.2089844-0.7060547,0.5908203-1.59375,1.1445313-2.6630859
		c0.5537109-1.0683594,1.2880859-2.4619141,2.2041016-4.1787109c0.9160156-1.7177734,2.0800781-3.9121094,3.4931641-6.5849609
		c-1.8515625,3.015625-3.6933594,5.6357422-5.5253906,7.8583984c-1.8320313,2.2236328-3.4921875,4.0605469-4.9814453,5.5107422
		c-1.2587891,1.2792969-2.5283203,2.3955078-3.8066406,3.3496094c-1.2792969,0.9541016-2.3378906,1.46875-3.1777344,1.5458984
		c-0.7255859-0.0390625-1.2880859-0.3388672-1.6894531-0.9023438c-0.4003906-0.5625-0.6005859-1.3398438-0.6005859-2.3330078
		c0-0.8583984,0.1669922-1.640625,0.5009766-2.3466797c0.3330078-0.7060547,0.8916016-1.7275391,1.6748047-3.0634766
		c1.0107422-2.1943359,1.8886719-4.03125,2.6328125-5.5107422c0.7451172-1.4785156,1.3408203-2.6669922,1.7900391-3.5644531
		c0.4482422-0.8964844,0.7910156-1.5927734,1.0302734-2.0898438c0.2382813-0.4960938,0.3574219-0.8203125,0.3574219-0.9726563
		c0-0.1904297-0.0664063-0.3623047-0.2001953-0.515625c-0.1337891-0.1523438-0.3242188-0.2285156-0.5722656-0.2285156
		c-0.4580078,0.0380859-0.9404297,0.2480469-1.4462891,0.6289063c-0.5058594,0.3828125-0.9013672,0.7158203-1.1875,1.0019531
		c-0.9921875,1.0498047-1.8945313,2.1142578-2.7050781,3.1923828c-0.8115234,1.078125-1.3310547,1.65625-1.5605469,1.7324219
		c-0.0957031,0-0.1533203-0.0195313-0.171875-0.0576172s-0.0283203-0.0957031-0.0283203-0.171875
		c0.0947266-0.3818359,0.6201172-1.1494141,1.5742188-2.3046875c0.9541016-1.1542969,1.8037109-2.1035156,2.5478516-2.8486328
		c0.6484375-0.6865234,1.2167969-1.1728516,1.703125-1.4599609
		C224.8691406,325.1533203,225.3984375,325.0107422,225.9707031,325.0107422z"/>
	<path style="fill:#FFFFFF;" d="M257.0888672,324.4951172l-3.578125,8.359375
		c1.46875,0.0380859,2.6767578-0.0761719,3.6210938-0.34375c0.9443359-0.2666016,1.8652344-0.8486328,2.7626953-1.7460938
		c1.7177734-1.8896484,3.1484375-3.6542969,4.2939453-5.2958984s2.4716797-2.5195313,3.9794922-2.6337891
		c0.5722656,0,0.9873047,0.1103516,1.2451172,0.3291016c0.2578125,0.2197266,0.3867188,0.5205078,0.3867188,0.9013672
		c0,0.3056641-0.0673828,0.9404297-0.2011719,1.9042969s-0.3144531,1.5029297-0.5439453,1.6171875
		c-0.2861328-0.0761719-0.4863281-0.3574219-0.6005859-0.8447266c-0.1152344-0.4863281-0.5253906-0.7675781-1.2314453-0.8447266
		c-1.0683594,0.2109375-2.3183594,1.2265625-3.75,3.0488281c-1.4316406,1.8232422-3.3681641,3.2119141-5.8115234,4.1660156
		v0.1708984c0.4013672,0.0576172,0.8779297,0.234375,1.4316406,0.5302734s1.078125,0.6826172,1.5742188,1.1591797
		c1.0693359,1.3554688,1.9755859,3.2402344,2.7197266,5.6542969s1.4033203,3.7548828,1.9755859,4.0214844
		c0.5146484-0.2099609,1.2978516-1.0205078,2.3476563-2.4335938c1.0488281-1.4121094,1.7265625-2.2226563,2.0322266-2.4326172
		c0.1328125,0,0.2285156,0.0244141,0.2861328,0.0712891c0.0576172,0.0478516,0.0859375,0.1386719,0.0859375,0.2724609
		c-0.1337891,0.3242188-0.8212891,1.2402344-2.0615234,2.7480469s-2.1757813,2.5859375-2.8046875,3.234375
		c-0.2675781,0.2675781-0.5439453,0.4824219-0.8310547,0.6445313c-0.2861328,0.1621094-0.6201172,0.2529297-1.0019531,0.2714844
		c-0.9541016-0.0185547-1.6835938-0.6201172-2.1894531-1.8037109c-0.5058594-1.1826172-1.1591797-3.0146484-1.9609375-5.4960938
		c-0.9160156-2.84375-1.703125-4.5986328-2.3613281-5.2675781c-0.6591797-0.6669922-1.8857422-0.9443359-3.6787109-0.8300781
		l-5.1533203,13.2832031h-3.8359375l8.8457031-22.3291016L257.0888672,324.4951172z"/>
	<path style="fill:#FFFFFF;" d="M295.5634766,325.46875c-0.5917969,1.3359375-1.3691406,3.0292969-2.3320313,5.0810547
		c-0.9648438,2.0517578-1.9335938,4.1845703-2.90625,6.3984375c-0.9736328,2.2138672-1.8037109,4.1503906-2.4912109,5.8105469
		c-0.6865234,1.6611328-1.0302734,2.7773438-1.0302734,3.3496094c0,0.1533203,0.0234375,0.2724609,0.0712891,0.3583984
		s0.1474609,0.1289063,0.3007813,0.1289063c0.2480469-0.0380859,0.7109375-0.3251953,1.3886719-0.859375
		c0.6767578-0.5341797,1.3027344-1.0878906,1.875-1.6601563c1.7373047-1.8125,2.8095703-3.125,3.2197266-3.9365234
		c0.4101563-0.8105469,0.7109375-1.2070313,0.9023438-1.1875c0.0957031,0,0.1757813,0.0185547,0.2441406,0.0566406
		c0.0664063,0.0390625,0.0996094,0.1054688,0.0996094,0.2011719c-0.0566406,0.3427734-0.5292969,1.1064453-1.4160156,2.2900391
		c-0.8886719,1.1835938-1.8183594,2.2714844-2.7919922,3.2626953c-0.5917969,0.5917969-1.2744141,1.1503906-2.046875,1.6748047
		c-0.7734375,0.5253906-1.4648438,0.8164063-2.0761719,0.8730469c-0.6103516-0.0185547-1.1591797-0.2910156-1.6455078-0.8154297
		s-0.7402344-1.3496094-0.7587891-2.4765625c0-0.7822266,0.1767578-1.6933594,0.5292969-2.7333984
		c0.3535156-1.0400391,0.8251953-2.15625,1.4169922-3.3496094c0.5917969-1.1923828,1.2070313-2.4619141,1.8466797-3.8076172
		c0.6396484-1.3447266,1.2744141-2.7050781,1.9042969-4.0791016c-0.7070313,0.9355469-1.4228516,1.9130859-2.1474609,2.9345703
		c-0.7255859,1.0205078-1.4882813,2.0654297-2.2900391,3.1347656c-0.8017578,1.0683594-1.6513672,2.1513672-2.5478516,3.2490234
		c-0.8974609,1.0976563-1.8515625,2.1894531-2.8623047,3.2773438c-1.1650391,1.2216797-2.3046875,2.2714844-3.4208984,3.1494141
		c-1.1171875,0.8779297-2.2099609,1.3457031-3.2783203,1.4023438c-0.9160156-0.0566406-1.5605469-0.4677734-1.9326172-1.2304688
		c-0.3720703-0.7636719-0.5488281-1.6699219-0.5292969-2.7197266c0.1337891-3.7402344,1.9326172-7.6240234,5.3964844-11.6513672
		c3.4638672-4.0263672,7.8388672-6.2021484,13.125-6.5273438c0.4580078,0,0.90625,0.0390625,1.3457031,0.1152344
		s0.8398438,0.1708984,1.203125,0.2861328H295.5634766z M291.2705078,326.0693359
		c-0.1347656,0-0.296875-0.0283203-0.4873047-0.0859375c-0.1904297-0.0566406-0.4580078-0.0859375-0.8017578-0.0859375
		c-4.5800781,0.5351563-8.4404297,3.25-11.5800781,8.1445313c-3.1396484,4.8955078-4.7763672,8.7841797-4.9091797,11.6660156
		c0,0.2675781,0.0332031,0.4716797,0.1005859,0.6152344c0.0664063,0.1435547,0.1953125,0.2148438,0.3857422,0.2148438
		c0.6484375-0.0761719,1.4599609-0.5341797,2.4335938-1.3740234s1.7646484-1.5742188,2.3759766-2.2041016
		c1.9462891-1.9472656,4.140625-4.5234375,6.5839844-7.7294922S289.78125,328.9707031,291.2705078,326.0693359z"/>
</g>
</svg>
